<svg width="100" height="100" viewBox="0 0 100 100" fill="none" xmlns="http://www.w3.org/2000/svg">
<rect width="100" height="100" rx="50" fill="#1F2DE6"/>
<mask id="path-2-inside-1_11_132" fill="white">
<path d="M30.0206 23.9578C29.5906 24.5005 29.0377 25.3944 28.7919 25.9691C28.2083 27.3738 26.0581 35.2913 25.2287 39.1223C24.8601 40.8783 24.43 42.5703 24.2765 42.8576C24.1229 43.1769 24 44.4858 24 45.8267C24 47.6464 24.1536 48.4765 24.6451 49.4023C25.0137 50.0728 25.3516 51.254 25.3823 52.0522C25.4744 53.9996 25.843 55.564 26.3652 56.4259C26.7031 56.9367 26.7953 57.9264 26.7031 60.3208C26.6417 62.1087 26.6724 63.5772 26.7646 63.6411C26.9182 63.7049 27.9011 65.5247 29.3448 68.4938C29.867 69.5473 30.3892 70.4412 30.5428 70.5051C30.6657 70.5689 30.7578 70.8562 30.7578 71.1755C30.7578 71.4628 30.9421 71.9098 31.1572 72.1333C31.3415 72.3248 31.5258 72.6121 31.5258 72.7398C31.5565 73.2506 32.4166 74.6234 33.3381 75.6131L34.2903 76.6667L39.3587 76.6028C42.154 76.5709 45.6865 76.4432 47.1916 76.3155C48.7275 76.1559 51.5535 75.9643 53.4887 75.8685C55.4239 75.7408 57.4512 75.5812 57.9427 75.5174C58.4649 75.4216 60.0008 75.2939 61.4138 75.1981C62.8268 75.1023 64.6084 74.9746 65.4071 74.8788C66.2057 74.7831 68.2023 74.5915 69.8304 74.4C75.0216 73.8572 75.1138 73.6976 75.5131 65.9397L75.6667 62.4279L74.2229 60.8636C72.7792 59.3631 72.7485 59.2992 72.81 57.4476C72.9021 54.7339 72.4106 53.2015 71.0591 52.0841C70.4447 51.5413 69.7075 51.0944 69.4003 51.0944C69.1239 51.0944 68.8167 50.9667 68.7245 50.839C68.6324 50.6794 68.1716 50.6155 67.7109 50.6794C67.2501 50.7432 66.6358 50.6474 66.39 50.4878C66.0214 50.2005 66.0214 50.1047 66.39 49.5939C67.2501 48.5084 67.5573 47.6784 67.9259 45.6351C68.3252 43.3046 68.8167 41.836 69.1546 41.836C69.2775 41.836 69.4003 40.7505 69.3696 39.4416C69.3696 38.1007 69.5232 36.6641 69.7075 36.2491C70.629 34.2058 71.0898 32.865 71.1512 31.9391C71.3048 30.0236 70.1375 28.2358 66.5129 25.0432C65.3763 24.0216 64.6698 23.6385 63.9633 23.6385C63.4411 23.6385 63.0111 23.5108 63.0111 23.3831C63.0111 23.2235 62.2124 23.2235 61.2602 23.3831C60.2773 23.5747 57.0826 23.6066 54.1031 23.4789C51.1542 23.3512 44.7035 23.1916 39.7887 23.1277L30.8193 23L30.0206 23.9578ZM55.3317 24.5005L64.6698 24.6921L67.4344 27.4696C69.6461 29.7043 70.1683 30.4067 70.1683 31.1729C70.1683 31.6837 69.6461 33.5992 69.001 35.419C67.8952 38.4519 67.8337 38.7392 68.3252 39.1223C69.0624 39.6651 68.9703 40.2078 67.9259 41.9318C67.2501 43.0492 67.0044 43.8473 67.0044 44.9009C67.0044 46.3375 66.5129 47.7422 65.6221 48.9873C65.2228 49.562 65.1613 49.562 64.3627 48.8915C63.9019 48.5084 63.4411 48.285 63.349 48.4127C63.2568 48.5084 63.5333 48.9235 64.0248 49.3066C65.0077 50.1366 65.0692 50.5836 64.2091 52.0202C63.4104 53.3611 63.6254 53.5846 64.8541 52.6268C65.6221 52.0522 66.2364 51.8925 67.6187 51.8925C69.1853 51.8925 69.5539 52.0202 70.3526 52.8184C70.8748 53.3292 71.4584 54.255 71.6427 54.8616C72.0113 56.0428 71.8577 58.6288 71.3355 59.6185C70.8748 60.4805 70.3526 62.3641 70.5369 62.5237C70.5983 62.6195 70.7519 62.4918 70.8133 62.2364C70.9055 61.981 71.1205 61.3744 71.3048 60.8955L71.612 60.0016L73.0864 61.1828C73.8851 61.8533 74.5916 62.4598 74.653 62.4918C74.7144 62.5237 74.5916 64.7585 74.4073 67.4402C74.1308 70.7924 73.8851 72.4206 73.6086 72.676C72.9635 73.1868 61.2602 74.3361 47.9596 75.1981C37.7307 75.8366 34.9968 75.8366 34.1982 75.1023C33.8296 74.815 32.7852 72.9314 31.8329 70.9201C30.8807 68.9088 29.5598 66.3867 28.8841 65.3012L27.6861 63.3218V59.7462C27.6861 56.2344 27.6861 56.2025 28.4233 56.2025C29.867 56.2025 31.0343 56.5856 30.8807 57.0006C30.6964 57.4795 32.1094 59.9058 33.0309 60.7359C33.4302 61.0551 34.1982 61.3105 35.0583 61.3105C36.6863 61.3425 39.4201 62.2364 40.2802 63.0664C41.3246 64.0561 41.2632 63.3857 40.2188 62.2683C38.9287 60.9594 34.4746 57.8626 32.1708 56.6813C30.8193 56.0109 29.9899 55.7874 28.6076 55.8194L26.826 55.8513L26.611 54.6062C26.4881 53.9038 26.4881 52.9461 26.611 52.4353C26.7338 51.7968 26.5188 50.9348 25.8123 49.3704C24.6143 46.6887 24.6451 45.9863 26.5803 37.8453C28.4233 30.1513 29.9592 25.2348 30.85 24.4686C31.495 23.8939 31.9558 23.8939 38.7444 24.0855C42.7069 24.1812 50.1712 24.3728 55.3317 24.5005ZM33.1231 57.671C35.2119 58.8842 38.7751 61.3744 38.6215 61.534C38.56 61.5979 37.9764 61.4382 37.3314 61.1509C36.6249 60.8317 35.734 60.7039 35.1811 60.8317C34.0446 61.0232 32.9388 60.257 31.8022 58.4053C30.6657 56.4898 30.8807 56.394 33.1231 57.671Z"/>
</mask>
<path d="M30.0206 23.9578C29.5906 24.5005 29.0377 25.3944 28.7919 25.9691C28.2083 27.3738 26.0581 35.2913 25.2287 39.1223C24.8601 40.8783 24.43 42.5703 24.2765 42.8576C24.1229 43.1769 24 44.4858 24 45.8267C24 47.6464 24.1536 48.4765 24.6451 49.4023C25.0137 50.0728 25.3516 51.254 25.3823 52.0522C25.4744 53.9996 25.843 55.564 26.3652 56.4259C26.7031 56.9367 26.7953 57.9264 26.7031 60.3208C26.6417 62.1087 26.6724 63.5772 26.7646 63.6411C26.9182 63.7049 27.9011 65.5247 29.3448 68.4938C29.867 69.5473 30.3892 70.4412 30.5428 70.5051C30.6657 70.5689 30.7578 70.8562 30.7578 71.1755C30.7578 71.4628 30.9421 71.9098 31.1572 72.1333C31.3415 72.3248 31.5258 72.6121 31.5258 72.7398C31.5565 73.2506 32.4166 74.6234 33.3381 75.6131L34.2903 76.6667L39.3587 76.6028C42.154 76.5709 45.6865 76.4432 47.1916 76.3155C48.7275 76.1559 51.5535 75.9643 53.4887 75.8685C55.4239 75.7408 57.4512 75.5812 57.9427 75.5174C58.4649 75.4216 60.0008 75.2939 61.4138 75.1981C62.8268 75.1023 64.6084 74.9746 65.4071 74.8788C66.2057 74.7831 68.2023 74.5915 69.8304 74.4C75.0216 73.8572 75.1138 73.6976 75.5131 65.9397L75.6667 62.4279L74.2229 60.8636C72.7792 59.3631 72.7485 59.2992 72.81 57.4476C72.9021 54.7339 72.4106 53.2015 71.0591 52.0841C70.4447 51.5413 69.7075 51.0944 69.4003 51.0944C69.1239 51.0944 68.8167 50.9667 68.7245 50.839C68.6324 50.6794 68.1716 50.6155 67.7109 50.6794C67.2501 50.7432 66.6358 50.6474 66.39 50.4878C66.0214 50.2005 66.0214 50.1047 66.39 49.5939C67.2501 48.5084 67.5573 47.6784 67.9259 45.6351C68.3252 43.3046 68.8167 41.836 69.1546 41.836C69.2775 41.836 69.4003 40.7505 69.3696 39.4416C69.3696 38.1007 69.5232 36.6641 69.7075 36.2491C70.629 34.2058 71.0898 32.865 71.1512 31.9391C71.3048 30.0236 70.1375 28.2358 66.5129 25.0432C65.3763 24.0216 64.6698 23.6385 63.9633 23.6385C63.4411 23.6385 63.0111 23.5108 63.0111 23.3831C63.0111 23.2235 62.2124 23.2235 61.2602 23.3831C60.2773 23.5747 57.0826 23.6066 54.1031 23.4789C51.1542 23.3512 44.7035 23.1916 39.7887 23.1277L30.8193 23L30.0206 23.9578ZM55.3317 24.5005L64.6698 24.6921L67.4344 27.4696C69.6461 29.7043 70.1683 30.4067 70.1683 31.1729C70.1683 31.6837 69.6461 33.5992 69.001 35.419C67.8952 38.4519 67.8337 38.7392 68.3252 39.1223C69.0624 39.6651 68.9703 40.2078 67.9259 41.9318C67.2501 43.0492 67.0044 43.8473 67.0044 44.9009C67.0044 46.3375 66.5129 47.7422 65.6221 48.9873C65.2228 49.562 65.1613 49.562 64.3627 48.8915C63.9019 48.5084 63.4411 48.285 63.349 48.4127C63.2568 48.5084 63.5333 48.9235 64.0248 49.3066C65.0077 50.1366 65.0692 50.5836 64.2091 52.0202C63.4104 53.3611 63.6254 53.5846 64.8541 52.6268C65.6221 52.0522 66.2364 51.8925 67.6187 51.8925C69.1853 51.8925 69.5539 52.0202 70.3526 52.8184C70.8748 53.3292 71.4584 54.255 71.6427 54.8616C72.0113 56.0428 71.8577 58.6288 71.3355 59.6185C70.8748 60.4805 70.3526 62.3641 70.5369 62.5237C70.5983 62.6195 70.7519 62.4918 70.8133 62.2364C70.9055 61.981 71.1205 61.3744 71.3048 60.8955L71.612 60.0016L73.0864 61.1828C73.8851 61.8533 74.5916 62.4598 74.653 62.4918C74.7144 62.5237 74.5916 64.7585 74.4073 67.4402C74.1308 70.7924 73.8851 72.4206 73.6086 72.676C72.9635 73.1868 61.2602 74.3361 47.9596 75.1981C37.7307 75.8366 34.9968 75.8366 34.1982 75.1023C33.8296 74.815 32.7852 72.9314 31.8329 70.9201C30.8807 68.9088 29.5598 66.3867 28.8841 65.3012L27.6861 63.3218V59.7462C27.6861 56.2344 27.6861 56.2025 28.4233 56.2025C29.867 56.2025 31.0343 56.5856 30.8807 57.0006C30.6964 57.4795 32.1094 59.9058 33.0309 60.7359C33.4302 61.0551 34.1982 61.3105 35.0583 61.3105C36.6863 61.3425 39.4201 62.2364 40.2802 63.0664C41.3246 64.0561 41.2632 63.3857 40.2188 62.2683C38.9287 60.9594 34.4746 57.8626 32.1708 56.6813C30.8193 56.0109 29.9899 55.7874 28.6076 55.8194L26.826 55.8513L26.611 54.6062C26.4881 53.9038 26.4881 52.9461 26.611 52.4353C26.7338 51.7968 26.5188 50.9348 25.8123 49.3704C24.6143 46.6887 24.6451 45.9863 26.5803 37.8453C28.4233 30.1513 29.9592 25.2348 30.85 24.4686C31.495 23.8939 31.9558 23.8939 38.7444 24.0855C42.7069 24.1812 50.1712 24.3728 55.3317 24.5005ZM33.1231 57.671C35.2119 58.8842 38.7751 61.3744 38.6215 61.534C38.56 61.5979 37.9764 61.4382 37.3314 61.1509C36.6249 60.8317 35.734 60.7039 35.1811 60.8317C34.0446 61.0232 32.9388 60.257 31.8022 58.4053C30.6657 56.4898 30.8807 56.394 33.1231 57.671Z" fill="white" stroke="white" stroke-width="58" mask="url(#path-2-inside-1_11_132)"/>
<mask id="path-3-inside-2_11_132" fill="white">
<path d="M34.0437 29.0606C33.3986 29.5076 32.6 31.0719 31.5863 34.041C30.5112 37.1378 28.8525 43.7463 29.006 44.3529C29.0675 44.6402 29.2825 44.2252 29.4668 43.4271C31.4327 35.733 32.8457 31.3912 33.8594 29.9545L34.4123 29.2203L43.4125 29.316C48.358 29.3799 56.0066 29.5076 60.3992 29.6672C67.8328 29.8907 68.8465 29.8907 68.5086 29.5714C68.2936 29.3799 57.819 29.0606 45.9621 28.8691C37.9448 28.7733 34.443 28.8052 34.0437 29.0606Z"/>
</mask>
<path d="M34.0437 29.0606C33.3986 29.5076 32.6 31.0719 31.5863 34.041C30.5112 37.1378 28.8525 43.7463 29.006 44.3529C29.0675 44.6402 29.2825 44.2252 29.4668 43.4271C31.4327 35.733 32.8457 31.3912 33.8594 29.9545L34.4123 29.2203L43.4125 29.316C48.358 29.3799 56.0066 29.5076 60.3992 29.6672C67.8328 29.8907 68.8465 29.8907 68.5086 29.5714C68.2936 29.3799 57.819 29.0606 45.9621 28.8691C37.9448 28.7733 34.443 28.8052 34.0437 29.0606Z" fill="white" stroke="white" stroke-width="58" mask="url(#path-3-inside-2_11_132)"/>
<mask id="path-4-inside-3_11_132" fill="white">
<path d="M36.0402 29.9624C34.7501 30.0582 34.6579 30.1221 33.9821 31.7183C33.6135 32.6442 32.7842 35.2301 32.1698 37.5288C31.5555 39.7955 30.9411 42.126 30.7568 42.6687C30.4496 43.6904 30.3268 44.9355 30.6032 44.6481C30.6954 44.5843 31.2176 42.7007 31.8012 40.5297C33.2142 35.1982 34.6579 30.9202 35.1187 30.6009C35.6409 30.2817 42.2451 30.2817 50.5695 30.6329C61.8121 31.1437 69.9522 31.3033 69.1536 31.016C68.7235 30.8883 66.604 30.7286 64.3924 30.6967C62.2114 30.6648 59.7233 30.569 58.8632 30.5052C53.7641 30.1859 37.9754 29.8028 36.0402 29.9624Z"/>
</mask>
<path d="M36.0402 29.9624C34.7501 30.0582 34.6579 30.1221 33.9821 31.7183C33.6135 32.6442 32.7842 35.2301 32.1698 37.5288C31.5555 39.7955 30.9411 42.126 30.7568 42.6687C30.4496 43.6904 30.3268 44.9355 30.6032 44.6481C30.6954 44.5843 31.2176 42.7007 31.8012 40.5297C33.2142 35.1982 34.6579 30.9202 35.1187 30.6009C35.6409 30.2817 42.2451 30.2817 50.5695 30.6329C61.8121 31.1437 69.9522 31.3033 69.1536 31.016C68.7235 30.8883 66.604 30.7286 64.3924 30.6967C62.2114 30.6648 59.7233 30.569 58.8632 30.5052C53.7641 30.1859 37.9754 29.8028 36.0402 29.9624Z" fill="white" stroke="white" stroke-width="58" mask="url(#path-4-inside-3_11_132)"/>
<mask id="path-5-inside-4_11_132" fill="white">
<path d="M62.8846 31.8736C62.7925 32.0332 62.1781 33.821 61.5023 35.8004C60.8573 37.8117 60.2122 39.6953 60.0893 39.9826C59.9665 40.3338 59.9972 40.5573 60.1815 40.5573C60.3658 40.5573 60.6115 40.238 60.7037 39.823C60.8266 39.4399 61.4716 37.4925 62.1474 35.5131C62.8232 33.5018 63.284 31.8097 63.2225 31.714C63.1304 31.6501 62.9768 31.714 62.8846 31.8736Z"/>
</mask>
<path d="M62.8846 31.8736C62.7925 32.0332 62.1781 33.821 61.5023 35.8004C60.8573 37.8117 60.2122 39.6953 60.0893 39.9826C59.9665 40.3338 59.9972 40.5573 60.1815 40.5573C60.3658 40.5573 60.6115 40.238 60.7037 39.823C60.8266 39.4399 61.4716 37.4925 62.1474 35.5131C62.8232 33.5018 63.284 31.8097 63.2225 31.714C63.1304 31.6501 62.9768 31.714 62.8846 31.8736Z" fill="white" stroke="white" stroke-width="58" mask="url(#path-5-inside-4_11_132)"/>
<mask id="path-6-inside-5_11_132" fill="white">
<path d="M63.689 38.4494C63.4739 39.056 63.0439 39.5987 62.7674 39.6626C62.4295 39.7264 62.8596 40.1734 64.0883 40.9396C66.8836 42.6636 67.0371 42.6636 67.8051 41.0354C68.3273 39.8541 68.358 39.5987 67.9894 39.4391C67.4672 39.2475 67.5286 39.1518 66.8836 40.4607C66.6071 41.0354 66.2385 41.5142 66.0542 41.5142C65.8699 41.5142 66.0849 40.8757 66.4842 40.0776C66.9143 39.2795 67.16 38.641 66.9757 38.641C66.8221 38.641 66.4228 39.2156 66.0849 39.918C65.747 40.6203 65.317 41.195 65.1634 41.195C64.7026 41.195 64.7948 40.8438 65.6241 39.3433C66.0235 38.609 66.2692 38.0024 66.1463 38.0024C66.0235 38.0024 65.6241 38.5771 65.2248 39.2795C64.8562 39.9818 64.3955 40.5565 64.2111 40.5565C63.6582 40.5565 63.5661 39.6626 64.0576 38.6729C64.6105 37.5874 64.6412 37.3639 64.3033 37.3639C64.1804 37.3639 63.8733 37.8428 63.689 38.4494Z"/>
</mask>
<path d="M63.689 38.4494C63.4739 39.056 63.0439 39.5987 62.7674 39.6626C62.4295 39.7264 62.8596 40.1734 64.0883 40.9396C66.8836 42.6636 67.0371 42.6636 67.8051 41.0354C68.3273 39.8541 68.358 39.5987 67.9894 39.4391C67.4672 39.2475 67.5286 39.1518 66.8836 40.4607C66.6071 41.0354 66.2385 41.5142 66.0542 41.5142C65.8699 41.5142 66.0849 40.8757 66.4842 40.0776C66.9143 39.2795 67.16 38.641 66.9757 38.641C66.8221 38.641 66.4228 39.2156 66.0849 39.918C65.747 40.6203 65.317 41.195 65.1634 41.195C64.7026 41.195 64.7948 40.8438 65.6241 39.3433C66.0235 38.609 66.2692 38.0024 66.1463 38.0024C66.0235 38.0024 65.6241 38.5771 65.2248 39.2795C64.8562 39.9818 64.3955 40.5565 64.2111 40.5565C63.6582 40.5565 63.5661 39.6626 64.0576 38.6729C64.6105 37.5874 64.6412 37.3639 64.3033 37.3639C64.1804 37.3639 63.8733 37.8428 63.689 38.4494Z" fill="white" stroke="white" stroke-width="58" mask="url(#path-6-inside-5_11_132)"/>
<mask id="path-7-inside-6_11_132" fill="white">
<path d="M64.3946 38.678C63.6574 40.1466 63.9953 40.402 64.7632 38.9653C65.1318 38.263 65.2854 37.6883 65.1318 37.6883C65.009 37.6883 64.6404 38.1353 64.3946 38.678Z"/>
</mask>
<path d="M64.3946 38.678C63.6574 40.1466 63.9953 40.402 64.7632 38.9653C65.1318 38.263 65.2854 37.6883 65.1318 37.6883C65.009 37.6883 64.6404 38.1353 64.3946 38.678Z" fill="white" stroke="white" stroke-width="58" mask="url(#path-7-inside-6_11_132)"/>
<mask id="path-8-inside-7_11_132" fill="white">
<path d="M59.0195 42.4385C59.0195 42.63 59.3881 42.8854 59.8796 42.9812C60.3404 43.1089 61.9377 44.0348 63.4736 45.0564C64.9787 46.078 66.2996 46.8442 66.361 46.7484C66.576 46.5569 65.6238 45.8545 62.8285 44.0986C60.1254 42.4066 59.0195 41.9277 59.0195 42.4385Z"/>
</mask>
<path d="M59.0195 42.4385C59.0195 42.63 59.3881 42.8854 59.8796 42.9812C60.3404 43.1089 61.9377 44.0348 63.4736 45.0564C64.9787 46.078 66.2996 46.8442 66.361 46.7484C66.576 46.5569 65.6238 45.8545 62.8285 44.0986C60.1254 42.4066 59.0195 41.9277 59.0195 42.4385Z" fill="white" stroke="white" stroke-width="58" mask="url(#path-8-inside-7_11_132)"/>
<mask id="path-9-inside-8_11_132" fill="white">
<path d="M32.1071 43.8756C31.6156 44.9291 31.6156 44.9611 33.2436 48.6963C35.6396 54.2514 36.4382 55.0176 39.9707 55.3368C41.1687 55.4326 42.8889 55.9115 44.2712 56.5181C47.22 57.827 53.7936 59.7745 54.3465 59.551C54.6536 59.4233 54.7458 59.104 54.5922 58.4336C54.5001 57.8909 54.5308 57.4758 54.6844 57.4758C55.1758 57.4758 55.5445 58.274 55.7595 59.6787C55.9438 60.828 55.8823 61.0196 55.483 60.8919C55.2373 60.7642 55.0223 60.828 55.0223 60.9876C55.0223 61.1792 55.2373 61.3069 55.4523 61.3069C55.698 61.3069 56.2817 61.8177 56.7424 62.4243C57.1725 63.0309 57.6947 63.5417 57.879 63.5417C58.0326 63.5417 57.9711 63.2863 57.7254 62.967C55.6059 60.4768 55.8516 56.2627 58.2169 54.9537C58.6162 54.7303 59.507 54.5706 60.2135 54.6664C61.1043 54.7303 61.5036 54.6345 61.6265 54.3152C61.7186 54.0917 61.7494 53.8363 61.7186 53.8044C61.6572 53.7725 60.5207 53.0701 59.1691 52.2401C57.8175 51.3781 56.3431 50.3245 55.8823 49.8776C55.0837 49.1114 54.7151 49.1752 55.268 50.0053C55.5445 50.4522 58.1861 52.3039 60.0906 53.3894C61.4729 54.1875 61.5343 54.2514 60.6128 54.0917C59.9985 53.964 59.1077 54.0917 58.2476 54.4429L56.8653 54.9857L55.3909 53.9002C53.4249 52.3997 53.1792 52.272 53.1792 52.6232C53.1792 52.8147 53.8857 53.4213 54.7765 53.996C55.6366 54.6025 56.466 55.1453 56.6196 55.273C56.7424 55.3688 56.5888 55.9753 56.2817 56.6139L55.698 57.7951L54.1929 56.5819C52.2577 54.9857 50.3532 52.7189 49.0016 50.4203C47.8037 48.3452 47.4043 48.1217 42.2438 46.6212C38.6499 45.5677 36.9604 44.8653 35.2402 43.6521C33.5815 42.4709 32.7214 42.5347 32.1071 43.8756ZM34.9945 44.0672C35.9775 45.0249 37.2062 45.5677 41.6602 46.9404C47.5886 48.7283 47.4658 48.6644 48.6638 50.7076C49.2781 51.7293 50.6604 53.6767 51.7969 55.0814C53.9779 57.7951 54.5615 58.689 54.285 58.9763C54.0086 59.2956 49.7081 58.0505 45.0698 56.3265C41.9366 55.1453 40.0322 54.6025 39.0492 54.6025C37.9127 54.6025 37.3597 54.411 36.6225 53.7725C35.5781 52.8786 32.2914 46.0785 32.2914 44.8653C32.2914 43.2371 33.7044 42.8221 34.9945 44.0672Z"/>
</mask>
<path d="M32.1071 43.8756C31.6156 44.9291 31.6156 44.9611 33.2436 48.6963C35.6396 54.2514 36.4382 55.0176 39.9707 55.3368C41.1687 55.4326 42.8889 55.9115 44.2712 56.5181C47.22 57.827 53.7936 59.7745 54.3465 59.551C54.6536 59.4233 54.7458 59.104 54.5922 58.4336C54.5001 57.8909 54.5308 57.4758 54.6844 57.4758C55.1758 57.4758 55.5445 58.274 55.7595 59.6787C55.9438 60.828 55.8823 61.0196 55.483 60.8919C55.2373 60.7642 55.0223 60.828 55.0223 60.9876C55.0223 61.1792 55.2373 61.3069 55.4523 61.3069C55.698 61.3069 56.2817 61.8177 56.7424 62.4243C57.1725 63.0309 57.6947 63.5417 57.879 63.5417C58.0326 63.5417 57.9711 63.2863 57.7254 62.967C55.6059 60.4768 55.8516 56.2627 58.2169 54.9537C58.6162 54.7303 59.507 54.5706 60.2135 54.6664C61.1043 54.7303 61.5036 54.6345 61.6265 54.3152C61.7186 54.0917 61.7494 53.8363 61.7186 53.8044C61.6572 53.7725 60.5207 53.0701 59.1691 52.2401C57.8175 51.3781 56.3431 50.3245 55.8823 49.8776C55.0837 49.1114 54.7151 49.1752 55.268 50.0053C55.5445 50.4522 58.1861 52.3039 60.0906 53.3894C61.4729 54.1875 61.5343 54.2514 60.6128 54.0917C59.9985 53.964 59.1077 54.0917 58.2476 54.4429L56.8653 54.9857L55.3909 53.9002C53.4249 52.3997 53.1792 52.272 53.1792 52.6232C53.1792 52.8147 53.8857 53.4213 54.7765 53.996C55.6366 54.6025 56.466 55.1453 56.6196 55.273C56.7424 55.3688 56.5888 55.9753 56.2817 56.6139L55.698 57.7951L54.1929 56.5819C52.2577 54.9857 50.3532 52.7189 49.0016 50.4203C47.8037 48.3452 47.4043 48.1217 42.2438 46.6212C38.6499 45.5677 36.9604 44.8653 35.2402 43.6521C33.5815 42.4709 32.7214 42.5347 32.1071 43.8756ZM34.9945 44.0672C35.9775 45.0249 37.2062 45.5677 41.6602 46.9404C47.5886 48.7283 47.4658 48.6644 48.6638 50.7076C49.2781 51.7293 50.6604 53.6767 51.7969 55.0814C53.9779 57.7951 54.5615 58.689 54.285 58.9763C54.0086 59.2956 49.7081 58.0505 45.0698 56.3265C41.9366 55.1453 40.0322 54.6025 39.0492 54.6025C37.9127 54.6025 37.3597 54.411 36.6225 53.7725C35.5781 52.8786 32.2914 46.0785 32.2914 44.8653C32.2914 43.2371 33.7044 42.8221 34.9945 44.0672Z" fill="white" stroke="white" stroke-width="58" mask="url(#path-9-inside-8_11_132)"/>
<mask id="path-10-inside-9_11_132" fill="white">
<path d="M57.1719 44.644C57.1719 44.8036 57.6941 45.1548 58.3391 45.4741C58.9535 45.7933 60.09 46.4637 60.8272 46.9746C61.5645 47.5173 62.3017 47.8685 62.4553 47.8365C62.6396 47.7727 62.2402 47.3577 61.5645 46.8788C59.8136 45.6975 57.1719 44.3247 57.1719 44.644Z"/>
</mask>
<path d="M57.1719 44.644C57.1719 44.8036 57.6941 45.1548 58.3391 45.4741C58.9535 45.7933 60.09 46.4637 60.8272 46.9746C61.5645 47.5173 62.3017 47.8685 62.4553 47.8365C62.6396 47.7727 62.2402 47.3577 61.5645 46.8788C59.8136 45.6975 57.1719 44.3247 57.1719 44.644Z" fill="white" stroke="white" stroke-width="58" mask="url(#path-10-inside-9_11_132)"/>
<mask id="path-11-inside-10_11_132" fill="white">
<path d="M28.4837 45.5376C27.8694 46.1761 27.8694 46.5911 28.5145 47.3254C29.0059 47.9 28.9752 47.9639 28.2073 48.7301C27.2858 49.5921 27.1322 50.8053 27.8387 51.4118C28.2073 51.7311 28.1766 51.9546 27.4701 53.04C27.04 53.7424 26.7328 54.3809 26.825 54.4767C26.9171 54.5725 27.4086 53.9978 27.8694 53.1997C28.6373 51.9226 28.8831 51.7311 29.6817 51.8269C30.4804 51.8907 30.6032 52.0184 30.6954 53.0081C30.8183 54.1574 31.494 55.2429 32.1391 55.2429C32.3234 55.2429 32.7842 55.6898 33.1835 56.2007C34.1665 57.5734 36.7774 59.2974 38.7433 59.8402C39.6649 60.0956 40.8628 60.5106 41.3543 60.7979C41.8765 61.0852 42.7366 61.3087 43.2895 61.3087C44.1496 61.3087 44.2725 61.4045 44.1189 61.9153C43.7503 63.0965 44.8254 63.4158 46.9142 62.7454C47.3749 62.5857 47.6821 62.7454 48.0814 63.3839L48.6036 64.2139L42.3066 64.182C38.7126 64.1501 35.9788 64.0224 35.9173 63.8308C35.8559 63.6712 35.4259 63.7031 34.8422 63.9266C33.3064 64.5332 32.5999 63.9585 30.2039 60.1275C27.5929 56.073 27.2243 56.1049 29.6817 60.2233C32.2927 64.5651 32.047 64.4374 37.4225 64.5013C44.3953 64.629 59.6619 64.5013 60.8599 64.3416C61.4435 64.2778 63.1944 64.1182 64.6995 64.0224C67.1877 63.8308 68.2935 63.7031 72.7782 63.0327C73.4847 62.905 74.0684 62.6815 74.0684 62.5219C74.0684 62.3303 73.7305 62.2984 73.2697 62.3942C70.5051 63.1285 57.481 64.2778 56.1908 63.9266C55.8529 63.8628 55.6686 63.6074 55.7608 63.352C55.8529 63.1285 55.6379 62.6177 55.3307 62.2026C54.6857 61.4045 54.5014 61.628 55.085 62.5538C56.0372 64.1182 53.887 64.7886 51.829 63.5116C50.6924 62.8411 50.1088 62.905 50.1088 63.7351C50.1088 64.5651 49.0951 64.0862 48.4193 62.9688C47.9586 62.2026 47.6514 61.9792 47.1906 62.1388C46.8527 62.2346 46.1155 62.3942 45.5319 62.49C44.5797 62.6496 44.4875 62.6177 44.6718 61.9792C44.8561 61.181 44.0267 60.7021 42.3373 60.6383C41.6001 60.6064 41.5386 60.5425 42.0608 60.4467C43.3817 60.1913 42.7059 59.8082 40.5864 59.6486C39.1427 59.5209 37.914 59.2016 36.7774 58.627C34.9344 57.6692 32.692 55.3067 32.4156 53.9978C32.3234 53.5508 32.1391 52.8804 31.9855 52.5292C31.7398 51.9226 31.7091 51.9226 31.7091 52.625C31.6783 53.04 31.8319 53.6466 31.9855 53.9978C32.1698 54.3171 32.2005 54.6044 32.047 54.6044C31.5248 54.6044 31.1254 53.8382 31.0026 52.6889C30.9104 51.6034 30.8797 51.5715 29.4974 51.4757C27.5622 51.348 27.2858 50.4541 28.668 48.9536C29.5896 47.9639 29.6203 47.8681 29.1288 47.3254C28.4837 46.5911 28.453 45.793 29.0981 45.5376C29.8353 45.2502 29.9582 45.2822 30.6954 45.9845C31.0333 46.3357 31.4326 46.4953 31.5248 46.3357C31.7398 45.9207 30.4496 45.0268 29.6203 45.0268C29.2517 45.0268 28.7295 45.2502 28.4837 45.5376Z"/>
</mask>
<path d="M28.4837 45.5376C27.8694 46.1761 27.8694 46.5911 28.5145 47.3254C29.0059 47.9 28.9752 47.9639 28.2073 48.7301C27.2858 49.5921 27.1322 50.8053 27.8387 51.4118C28.2073 51.7311 28.1766 51.9546 27.4701 53.04C27.04 53.7424 26.7328 54.3809 26.825 54.4767C26.9171 54.5725 27.4086 53.9978 27.8694 53.1997C28.6373 51.9226 28.8831 51.7311 29.6817 51.8269C30.4804 51.8907 30.6032 52.0184 30.6954 53.0081C30.8183 54.1574 31.494 55.2429 32.1391 55.2429C32.3234 55.2429 32.7842 55.6898 33.1835 56.2007C34.1665 57.5734 36.7774 59.2974 38.7433 59.8402C39.6649 60.0956 40.8628 60.5106 41.3543 60.7979C41.8765 61.0852 42.7366 61.3087 43.2895 61.3087C44.1496 61.3087 44.2725 61.4045 44.1189 61.9153C43.7503 63.0965 44.8254 63.4158 46.9142 62.7454C47.3749 62.5857 47.6821 62.7454 48.0814 63.3839L48.6036 64.2139L42.3066 64.182C38.7126 64.1501 35.9788 64.0224 35.9173 63.8308C35.8559 63.6712 35.4259 63.7031 34.8422 63.9266C33.3064 64.5332 32.5999 63.9585 30.2039 60.1275C27.5929 56.073 27.2243 56.1049 29.6817 60.2233C32.2927 64.5651 32.047 64.4374 37.4225 64.5013C44.3953 64.629 59.6619 64.5013 60.8599 64.3416C61.4435 64.2778 63.1944 64.1182 64.6995 64.0224C67.1877 63.8308 68.2935 63.7031 72.7782 63.0327C73.4847 62.905 74.0684 62.6815 74.0684 62.5219C74.0684 62.3303 73.7305 62.2984 73.2697 62.3942C70.5051 63.1285 57.481 64.2778 56.1908 63.9266C55.8529 63.8628 55.6686 63.6074 55.7608 63.352C55.8529 63.1285 55.6379 62.6177 55.3307 62.2026C54.6857 61.4045 54.5014 61.628 55.085 62.5538C56.0372 64.1182 53.887 64.7886 51.829 63.5116C50.6924 62.8411 50.1088 62.905 50.1088 63.7351C50.1088 64.5651 49.0951 64.0862 48.4193 62.9688C47.9586 62.2026 47.6514 61.9792 47.1906 62.1388C46.8527 62.2346 46.1155 62.3942 45.5319 62.49C44.5797 62.6496 44.4875 62.6177 44.6718 61.9792C44.8561 61.181 44.0267 60.7021 42.3373 60.6383C41.6001 60.6064 41.5386 60.5425 42.0608 60.4467C43.3817 60.1913 42.7059 59.8082 40.5864 59.6486C39.1427 59.5209 37.914 59.2016 36.7774 58.627C34.9344 57.6692 32.692 55.3067 32.4156 53.9978C32.3234 53.5508 32.1391 52.8804 31.9855 52.5292C31.7398 51.9226 31.7091 51.9226 31.7091 52.625C31.6783 53.04 31.8319 53.6466 31.9855 53.9978C32.1698 54.3171 32.2005 54.6044 32.047 54.6044C31.5248 54.6044 31.1254 53.8382 31.0026 52.6889C30.9104 51.6034 30.8797 51.5715 29.4974 51.4757C27.5622 51.348 27.2858 50.4541 28.668 48.9536C29.5896 47.9639 29.6203 47.8681 29.1288 47.3254C28.4837 46.5911 28.453 45.793 29.0981 45.5376C29.8353 45.2502 29.9582 45.2822 30.6954 45.9845C31.0333 46.3357 31.4326 46.4953 31.5248 46.3357C31.7398 45.9207 30.4496 45.0268 29.6203 45.0268C29.2517 45.0268 28.7295 45.2502 28.4837 45.5376Z" fill="white" stroke="white" stroke-width="58" mask="url(#path-11-inside-10_11_132)"/>
<mask id="path-12-inside-11_11_132" fill="white">
<path d="M48.268 47.5849C47.285 47.7445 48.0529 47.8084 50.8175 47.8403C53.2442 47.8722 54.7186 47.7765 54.7186 47.5849C54.7186 47.2337 50.4796 47.2337 48.268 47.5849Z"/>
</mask>
<path d="M48.268 47.5849C47.285 47.7445 48.0529 47.8084 50.8175 47.8403C53.2442 47.8722 54.7186 47.7765 54.7186 47.5849C54.7186 47.2337 50.4796 47.2337 48.268 47.5849Z" fill="white" stroke="white" stroke-width="58" mask="url(#path-12-inside-11_11_132)"/>
<mask id="path-13-inside-12_11_132" fill="white">
<path d="M31.0625 48.6358C31.0625 49.3701 33.5199 54.3504 34.5028 55.6594C35.6087 57.1279 36.991 57.7984 38.6497 57.7664C40.032 57.7345 47.3427 60.097 50.9367 61.7571C53.5784 62.9703 54.1005 63.098 54.1005 62.5872C54.1005 62.3956 53.8548 62.2679 53.5784 62.2679C53.2712 62.2679 52.1654 61.8529 51.0902 61.3102C48.2642 59.9374 39.817 57.1599 38.404 57.1599C36.7452 57.1599 35.578 56.4575 34.5028 54.8293C33.3049 53.0096 32.1069 50.5194 31.8304 49.2424C31.6461 48.2527 31.0625 47.8057 31.0625 48.6358Z"/>
</mask>
<path d="M31.0625 48.6358C31.0625 49.3701 33.5199 54.3504 34.5028 55.6594C35.6087 57.1279 36.991 57.7984 38.6497 57.7664C40.032 57.7345 47.3427 60.097 50.9367 61.7571C53.5784 62.9703 54.1005 63.098 54.1005 62.5872C54.1005 62.3956 53.8548 62.2679 53.5784 62.2679C53.2712 62.2679 52.1654 61.8529 51.0902 61.3102C48.2642 59.9374 39.817 57.1599 38.404 57.1599C36.7452 57.1599 35.578 56.4575 34.5028 54.8293C33.3049 53.0096 32.1069 50.5194 31.8304 49.2424C31.6461 48.2527 31.0625 47.8057 31.0625 48.6358Z" fill="white" stroke="white" stroke-width="58" mask="url(#path-13-inside-12_11_132)"/>
<mask id="path-14-inside-13_11_132" fill="white">
<path d="M65.5942 53.6158C64.7034 54.1904 63.7818 55.1801 64.4269 54.8928C65.8399 54.1904 67.0072 53.4881 67.0072 53.2646C67.0072 52.8496 66.6386 52.9453 65.5942 53.6158Z"/>
</mask>
<path d="M65.5942 53.6158C64.7034 54.1904 63.7818 55.1801 64.4269 54.8928C65.8399 54.1904 67.0072 53.4881 67.0072 53.2646C67.0072 52.8496 66.6386 52.9453 65.5942 53.6158Z" fill="white" stroke="white" stroke-width="58" mask="url(#path-14-inside-13_11_132)"/>
<mask id="path-15-inside-14_11_132" fill="white">
<path d="M68.9693 54.5739C69.553 55.2124 69.8294 55.8829 69.9216 56.8087C69.9523 57.543 70.1059 58.2454 70.2287 58.3731C70.3516 58.5008 70.3823 57.8622 70.3209 56.9683C70.1673 55.2763 69.3072 53.68 68.57 53.6481C68.2628 53.6481 68.4164 53.9673 68.9693 54.5739Z"/>
</mask>
<path d="M68.9693 54.5739C69.553 55.2124 69.8294 55.8829 69.9216 56.8087C69.9523 57.543 70.1059 58.2454 70.2287 58.3731C70.3516 58.5008 70.3823 57.8622 70.3209 56.9683C70.1673 55.2763 69.3072 53.68 68.57 53.6481C68.2628 53.6481 68.4164 53.9673 68.9693 54.5739Z" fill="white" stroke="white" stroke-width="58" mask="url(#path-15-inside-14_11_132)"/>
<mask id="path-16-inside-15_11_132" fill="white">
<path d="M62.0896 55.7269C62.3046 55.9823 62.7039 56.2057 63.0111 56.2057C63.3182 56.2057 63.7176 55.9823 63.9326 55.7269C64.3934 55.1522 63.9019 55.0883 63.3797 55.6311C63.1032 55.9184 62.9189 55.9184 62.6425 55.6311C62.1203 55.0883 61.6288 55.1522 62.0896 55.7269Z"/>
</mask>
<path d="M62.0896 55.7269C62.3046 55.9823 62.7039 56.2057 63.0111 56.2057C63.3182 56.2057 63.7176 55.9823 63.9326 55.7269C64.3934 55.1522 63.9019 55.0883 63.3797 55.6311C63.1032 55.9184 62.9189 55.9184 62.6425 55.6311C62.1203 55.0883 61.6288 55.1522 62.0896 55.7269Z" fill="white" stroke="white" stroke-width="58" mask="url(#path-16-inside-15_11_132)"/>
<mask id="path-17-inside-16_11_132" fill="white">
<path d="M57.1719 59.2343C57.1719 60.0324 58.032 61.9479 58.3699 61.9479C58.8306 61.9479 58.7999 61.6606 58.247 61.1179C58.0012 60.8305 57.7862 60.192 57.7862 59.6812C57.7862 59.1704 57.6634 58.7554 57.479 58.7554C57.3255 58.7554 57.1719 58.9789 57.1719 59.2343Z"/>
</mask>
<path d="M57.1719 59.2343C57.1719 60.0324 58.032 61.9479 58.3699 61.9479C58.8306 61.9479 58.7999 61.6606 58.247 61.1179C58.0012 60.8305 57.7862 60.192 57.7862 59.6812C57.7862 59.1704 57.6634 58.7554 57.479 58.7554C57.3255 58.7554 57.1719 58.9789 57.1719 59.2343Z" fill="white" stroke="white" stroke-width="58" mask="url(#path-17-inside-16_11_132)"/>
<mask id="path-18-inside-17_11_132" fill="white">
<path d="M62.6119 64.6944C62.489 64.8221 62.3969 65.6202 62.3969 66.4822C62.3969 67.9827 62.3354 68.0784 61.2603 68.5893C60.3695 68.9724 59.1408 69.1001 56.2534 69.132C52.9359 69.132 52.2294 69.0362 50.97 68.4296C49.6184 67.7911 49.4956 67.6315 49.4956 66.6418C49.4956 65.2371 49.0348 64.8859 47.4068 65.0775L46.0859 65.2052L46.1781 67.9827L46.2702 70.7283L47.1918 70.824C47.714 70.8879 48.3283 71.1433 48.574 71.3668C50.4478 73.0907 57.5742 73.2823 61.7825 71.7179C63.0419 71.2391 64.5164 70.7602 65.0079 70.6325L65.9294 70.3771V67.5357L65.8987 64.6624L64.3628 64.5666C63.5334 64.5028 62.7348 64.5666 62.6119 64.6944ZM65.4686 65.2371C65.4686 65.5244 65.1922 65.6202 64.5778 65.5244C63.7792 65.4286 63.6563 65.5244 63.472 66.3864C63.1648 67.7911 62.8269 67.5996 62.9498 66.0991C63.0727 64.854 63.1034 64.8221 64.2706 64.8221C65.0693 64.8221 65.4686 64.9817 65.4686 65.2371ZM49.127 66.4183L49.1884 67.2165L48.6969 66.4822C48.4205 66.0991 48.0211 65.7798 47.8061 65.7798C47.2532 65.7798 46.946 67.9188 47.3146 69.1958C47.5604 70.1217 47.5297 70.2494 47.0075 70.2494C46.4853 70.2494 46.4238 70.0259 46.4238 68.0784C46.4238 66.8653 46.516 65.7798 46.6389 65.6521C46.7617 65.5244 47.3454 65.4606 47.9597 65.5244C48.8505 65.5883 49.0348 65.7479 49.127 66.4183ZM65.1922 66.4502C65.5301 67.1207 65.4686 68.3019 65.0079 69.4193C64.8236 69.8663 64.8543 69.962 65.1 69.8024C65.315 69.6747 65.4686 69.7066 65.4686 69.8982C65.4686 70.0578 65.2229 70.2175 64.9464 70.2175C64.6392 70.1855 63.472 70.5686 62.3047 71.0156C59.5094 72.133 55.3933 72.6119 52.5059 72.133C48.6969 71.5264 47.6525 70.6006 47.6525 67.7911C47.6525 66.8653 47.7754 66.0991 47.8983 66.0991C48.0211 66.0991 48.3897 66.546 48.6969 67.0888C49.6492 68.7808 51.953 69.6428 55.7005 69.7066C57.4821 69.7386 59.5709 69.5789 60.4924 69.3235C62.274 68.8447 63.9327 67.4719 63.9327 66.4502C63.9327 65.5883 64.7314 65.5883 65.1922 66.4502Z"/>
</mask>
<path d="M62.6119 64.6944C62.489 64.8221 62.3969 65.6202 62.3969 66.4822C62.3969 67.9827 62.3354 68.0784 61.2603 68.5893C60.3695 68.9724 59.1408 69.1001 56.2534 69.132C52.9359 69.132 52.2294 69.0362 50.97 68.4296C49.6184 67.7911 49.4956 67.6315 49.4956 66.6418C49.4956 65.2371 49.0348 64.8859 47.4068 65.0775L46.0859 65.2052L46.1781 67.9827L46.2702 70.7283L47.1918 70.824C47.714 70.8879 48.3283 71.1433 48.574 71.3668C50.4478 73.0907 57.5742 73.2823 61.7825 71.7179C63.0419 71.2391 64.5164 70.7602 65.0079 70.6325L65.9294 70.3771V67.5357L65.8987 64.6624L64.3628 64.5666C63.5334 64.5028 62.7348 64.5666 62.6119 64.6944ZM65.4686 65.2371C65.4686 65.5244 65.1922 65.6202 64.5778 65.5244C63.7792 65.4286 63.6563 65.5244 63.472 66.3864C63.1648 67.7911 62.8269 67.5996 62.9498 66.0991C63.0727 64.854 63.1034 64.8221 64.2706 64.8221C65.0693 64.8221 65.4686 64.9817 65.4686 65.2371ZM49.127 66.4183L49.1884 67.2165L48.6969 66.4822C48.4205 66.0991 48.0211 65.7798 47.8061 65.7798C47.2532 65.7798 46.946 67.9188 47.3146 69.1958C47.5604 70.1217 47.5297 70.2494 47.0075 70.2494C46.4853 70.2494 46.4238 70.0259 46.4238 68.0784C46.4238 66.8653 46.516 65.7798 46.6389 65.6521C46.7617 65.5244 47.3454 65.4606 47.9597 65.5244C48.8505 65.5883 49.0348 65.7479 49.127 66.4183ZM65.1922 66.4502C65.5301 67.1207 65.4686 68.3019 65.0079 69.4193C64.8236 69.8663 64.8543 69.962 65.1 69.8024C65.315 69.6747 65.4686 69.7066 65.4686 69.8982C65.4686 70.0578 65.2229 70.2175 64.9464 70.2175C64.6392 70.1855 63.472 70.5686 62.3047 71.0156C59.5094 72.133 55.3933 72.6119 52.5059 72.133C48.6969 71.5264 47.6525 70.6006 47.6525 67.7911C47.6525 66.8653 47.7754 66.0991 47.8983 66.0991C48.0211 66.0991 48.3897 66.546 48.6969 67.0888C49.6492 68.7808 51.953 69.6428 55.7005 69.7066C57.4821 69.7386 59.5709 69.5789 60.4924 69.3235C62.274 68.8447 63.9327 67.4719 63.9327 66.4502C63.9327 65.5883 64.7314 65.5883 65.1922 66.4502Z" fill="white" stroke="white" stroke-width="58" mask="url(#path-18-inside-17_11_132)"/>
</svg>
