<svg width="748" height="105" viewBox="0 0 748 105" fill="none" xmlns="http://www.w3.org/2000/svg">
<mask id="path-1-outside-1_11_232" maskUnits="userSpaceOnUse" x="5" y="30" width="501" height="68" fill="black">
<rect fill="white" x="5" y="30" width="501" height="68"/>
<path d="M6.912 95V32.6H23.424V81.176H47.04V95H6.912ZM79.5105 96.152C70.8065 96.152 64.3105 93.592 60.0225 88.472C55.7345 83.352 53.5905 75.48 53.5905 64.856V32.6H70.1025V66.776C70.1025 72.344 70.8385 76.28 72.3105 78.584C73.8465 80.824 76.2465 81.944 79.5105 81.944C82.7745 81.944 85.1745 80.824 86.7105 78.584C88.3105 76.28 89.1105 72.344 89.1105 66.776V32.6H105.047V64.856C105.047 75.48 102.967 83.352 98.8065 88.472C94.7105 93.592 88.2785 96.152 79.5105 96.152ZM118.475 95V32.6H135.371L149.195 60.44L155.147 74.456H155.531C155.147 71.064 154.699 67.224 154.187 62.936C153.675 58.584 153.419 54.488 153.419 50.648V32.6H169.163V95H152.267L138.443 67.064L132.491 53.144H132.107C132.491 56.664 132.939 60.568 133.451 64.856C133.963 69.08 134.219 73.112 134.219 76.952V95H118.475ZM210.047 96.152C204.735 96.152 199.807 95 195.263 92.696C190.783 90.328 187.167 86.776 184.415 82.04C181.663 77.304 180.287 71.384 180.287 64.28C180.287 59.032 181.087 54.392 182.687 50.36C184.351 46.264 186.591 42.808 189.407 39.992C192.287 37.176 195.519 35.064 199.103 33.656C202.751 32.184 206.527 31.448 210.431 31.448C214.591 31.448 218.303 32.28 221.567 33.944C224.895 35.544 227.647 37.464 229.823 39.704L221.183 50.264C219.647 48.92 218.047 47.832 216.383 47C214.783 46.104 212.927 45.656 210.815 45.656C208.383 45.656 206.111 46.392 203.999 47.864C201.951 49.272 200.287 51.32 199.007 54.008C197.791 56.696 197.183 59.928 197.183 63.704C197.183 69.528 198.399 74.04 200.831 77.24C203.327 80.376 206.591 81.944 210.623 81.944C213.055 81.944 215.199 81.4 217.055 80.312C218.975 79.224 220.607 77.976 221.951 76.568L230.591 86.936C227.967 90.008 224.895 92.312 221.375 93.848C217.855 95.384 214.079 96.152 210.047 96.152ZM239.225 95V32.6H255.737V55.832H274.361V32.6H290.873V95H274.361V70.232H255.737V95H239.225ZM323.881 95V32.6H346.729C351.273 32.6 355.465 33.24 359.305 34.52C363.145 35.8 366.217 37.944 368.521 40.952C370.889 43.96 372.073 48.088 372.073 53.336C372.073 58.392 370.889 62.552 368.521 65.816C366.217 69.016 363.145 71.384 359.305 72.92C355.529 74.456 351.465 75.224 347.113 75.224H340.393V95H323.881ZM340.393 62.168H346.345C349.609 62.168 352.009 61.4 353.545 59.864C355.145 58.264 355.945 56.088 355.945 53.336C355.945 50.52 355.081 48.536 353.353 47.384C351.625 46.232 349.161 45.656 345.961 45.656H340.393V62.168ZM393.634 64.664L392.578 68.984H404.098L403.042 64.664C402.274 61.656 401.506 58.392 400.738 54.872C399.97 51.352 399.202 48.024 398.434 44.888H398.05C397.41 48.024 396.706 51.352 395.938 54.872C395.17 58.392 394.402 61.656 393.634 64.664ZM369.634 95L388.642 32.6H408.61L427.618 95H410.146L407.074 81.752H389.602L386.53 95H369.634ZM433.568 95V32.6H450.08V95H433.568ZM463.943 95V32.6H480.455V81.176H504.071V95H463.943Z"/>
</mask>
<path d="M6.912 95V32.6H23.424V81.176H47.04V95H6.912ZM79.5105 96.152C70.8065 96.152 64.3105 93.592 60.0225 88.472C55.7345 83.352 53.5905 75.48 53.5905 64.856V32.6H70.1025V66.776C70.1025 72.344 70.8385 76.28 72.3105 78.584C73.8465 80.824 76.2465 81.944 79.5105 81.944C82.7745 81.944 85.1745 80.824 86.7105 78.584C88.3105 76.28 89.1105 72.344 89.1105 66.776V32.6H105.047V64.856C105.047 75.48 102.967 83.352 98.8065 88.472C94.7105 93.592 88.2785 96.152 79.5105 96.152ZM118.475 95V32.6H135.371L149.195 60.44L155.147 74.456H155.531C155.147 71.064 154.699 67.224 154.187 62.936C153.675 58.584 153.419 54.488 153.419 50.648V32.6H169.163V95H152.267L138.443 67.064L132.491 53.144H132.107C132.491 56.664 132.939 60.568 133.451 64.856C133.963 69.08 134.219 73.112 134.219 76.952V95H118.475ZM210.047 96.152C204.735 96.152 199.807 95 195.263 92.696C190.783 90.328 187.167 86.776 184.415 82.04C181.663 77.304 180.287 71.384 180.287 64.28C180.287 59.032 181.087 54.392 182.687 50.36C184.351 46.264 186.591 42.808 189.407 39.992C192.287 37.176 195.519 35.064 199.103 33.656C202.751 32.184 206.527 31.448 210.431 31.448C214.591 31.448 218.303 32.28 221.567 33.944C224.895 35.544 227.647 37.464 229.823 39.704L221.183 50.264C219.647 48.92 218.047 47.832 216.383 47C214.783 46.104 212.927 45.656 210.815 45.656C208.383 45.656 206.111 46.392 203.999 47.864C201.951 49.272 200.287 51.32 199.007 54.008C197.791 56.696 197.183 59.928 197.183 63.704C197.183 69.528 198.399 74.04 200.831 77.24C203.327 80.376 206.591 81.944 210.623 81.944C213.055 81.944 215.199 81.4 217.055 80.312C218.975 79.224 220.607 77.976 221.951 76.568L230.591 86.936C227.967 90.008 224.895 92.312 221.375 93.848C217.855 95.384 214.079 96.152 210.047 96.152ZM239.225 95V32.6H255.737V55.832H274.361V32.6H290.873V95H274.361V70.232H255.737V95H239.225ZM323.881 95V32.6H346.729C351.273 32.6 355.465 33.24 359.305 34.52C363.145 35.8 366.217 37.944 368.521 40.952C370.889 43.96 372.073 48.088 372.073 53.336C372.073 58.392 370.889 62.552 368.521 65.816C366.217 69.016 363.145 71.384 359.305 72.92C355.529 74.456 351.465 75.224 347.113 75.224H340.393V95H323.881ZM340.393 62.168H346.345C349.609 62.168 352.009 61.4 353.545 59.864C355.145 58.264 355.945 56.088 355.945 53.336C355.945 50.52 355.081 48.536 353.353 47.384C351.625 46.232 349.161 45.656 345.961 45.656H340.393V62.168ZM393.634 64.664L392.578 68.984H404.098L403.042 64.664C402.274 61.656 401.506 58.392 400.738 54.872C399.97 51.352 399.202 48.024 398.434 44.888H398.05C397.41 48.024 396.706 51.352 395.938 54.872C395.17 58.392 394.402 61.656 393.634 64.664ZM369.634 95L388.642 32.6H408.61L427.618 95H410.146L407.074 81.752H389.602L386.53 95H369.634ZM433.568 95V32.6H450.08V95H433.568ZM463.943 95V32.6H480.455V81.176H504.071V95H463.943Z" fill="#1F2DE6"/>
<path d="M6.912 95H5.912V96H6.912V95ZM6.912 32.6V31.6H5.912V32.6H6.912ZM23.424 32.6H24.424V31.6H23.424V32.6ZM23.424 81.176H22.424V82.176H23.424V81.176ZM47.04 81.176H48.04V80.176H47.04V81.176ZM47.04 95V96H48.04V95H47.04ZM7.912 95V32.6H5.912V95H7.912ZM6.912 33.6H23.424V31.6H6.912V33.6ZM22.424 32.6V81.176H24.424V32.6H22.424ZM23.424 82.176H47.04V80.176H23.424V82.176ZM46.04 81.176V95H48.04V81.176H46.04ZM47.04 94H6.912V96H47.04V94ZM60.0225 88.472L60.7891 87.8299L60.7891 87.8299L60.0225 88.472ZM53.5905 32.6V31.6H52.5905V32.6H53.5905ZM70.1025 32.6H71.1025V31.6H70.1025V32.6ZM72.3105 78.584L71.4678 79.1224L71.4766 79.1361L71.4858 79.1495L72.3105 78.584ZM86.7105 78.584L85.8891 78.0136L85.8858 78.0185L86.7105 78.584ZM89.1105 32.6V31.6H88.1105V32.6H89.1105ZM105.047 32.6H106.047V31.6H105.047V32.6ZM98.8065 88.472L98.0304 87.8414L98.0256 87.8473L98.8065 88.472ZM79.5105 95.152C71.0062 95.152 64.833 92.6584 60.7891 87.8299L59.2559 89.1141C63.788 94.5256 70.6068 97.152 79.5105 97.152V95.152ZM60.7891 87.8299C56.7186 82.9695 54.5905 75.3757 54.5905 64.856H52.5905C52.5905 75.5843 54.7504 83.7345 59.2559 89.1141L60.7891 87.8299ZM54.5905 64.856V32.6H52.5905V64.856H54.5905ZM53.5905 33.6H70.1025V31.6H53.5905V33.6ZM69.1025 32.6V66.776H71.1025V32.6H69.1025ZM69.1025 66.776C69.1025 72.3735 69.8315 76.5612 71.4678 79.1224L73.1532 78.0456C71.8455 75.9988 71.1025 72.3145 71.1025 66.776H69.1025ZM71.4858 79.1495C73.2475 81.7186 75.9928 82.944 79.5105 82.944V80.944C76.5002 80.944 74.4455 79.9294 73.1352 78.0185L71.4858 79.1495ZM79.5105 82.944C83.0282 82.944 85.7736 81.7186 87.5352 79.1495L85.8858 78.0185C84.5755 79.9294 82.5208 80.944 79.5105 80.944V82.944ZM87.5319 79.1544C89.3166 76.5844 90.1105 72.3806 90.1105 66.776H88.1105C88.1105 72.3074 87.3044 75.9756 85.8891 78.0136L87.5319 79.1544ZM90.1105 66.776V32.6H88.1105V66.776H90.1105ZM89.1105 33.6H105.047V31.6H89.1105V33.6ZM104.047 32.6V64.856H106.047V32.6H104.047ZM104.047 64.856C104.047 75.3811 101.98 82.9799 98.0304 87.8414L99.5826 89.1026C103.953 83.7241 106.047 75.5789 106.047 64.856H104.047ZM98.0256 87.8473C94.1787 92.6559 88.0844 95.152 79.5105 95.152V97.152C88.4726 97.152 95.2423 94.5281 99.5874 89.0967L98.0256 87.8473ZM118.475 95H117.475V96H118.475V95ZM118.475 32.6V31.6H117.475V32.6H118.475ZM135.371 32.6L136.266 32.1553L135.99 31.6H135.371V32.6ZM149.195 60.44L150.115 60.0491L150.103 60.0218L150.09 59.9953L149.195 60.44ZM155.147 74.456L154.226 74.8469L154.485 75.456H155.147V74.456ZM155.531 74.456V75.456H156.65L156.524 74.3435L155.531 74.456ZM154.187 62.936L153.193 63.0528L153.194 63.0546L154.187 62.936ZM153.419 32.6V31.6H152.419V32.6H153.419ZM169.163 32.6H170.163V31.6H169.163V32.6ZM169.163 95V96H170.163V95H169.163ZM152.267 95L151.37 95.4435L151.646 96H152.267V95ZM138.443 67.064L137.523 67.4572L137.534 67.4827L137.546 67.5075L138.443 67.064ZM132.491 53.144L133.41 52.7508L133.15 52.144H132.491V53.144ZM132.107 53.144V52.144H130.991L131.112 53.2524L132.107 53.144ZM133.451 64.856L132.458 64.9746L132.458 64.9763L133.451 64.856ZM134.219 95V96H135.219V95H134.219ZM119.475 95V32.6H117.475V95H119.475ZM118.475 33.6H135.371V31.6H118.475V33.6ZM134.475 33.0447L148.299 60.8847L150.09 59.9953L136.266 32.1553L134.475 33.0447ZM148.274 60.8309L154.226 74.8469L156.067 74.0651L150.115 60.0491L148.274 60.8309ZM155.147 75.456H155.531V73.456H155.147V75.456ZM156.524 74.3435C156.14 70.949 155.692 67.107 155.179 62.8174L153.194 63.0546C153.705 67.341 154.153 71.179 154.537 74.5685L156.524 74.3435ZM155.18 62.8192C154.672 58.5006 154.419 54.444 154.419 50.648H152.419C152.419 54.532 152.677 58.6674 153.193 63.0528L155.18 62.8192ZM154.419 50.648V32.6H152.419V50.648H154.419ZM153.419 33.6H169.163V31.6H153.419V33.6ZM168.163 32.6V95H170.163V32.6H168.163ZM169.163 94H152.267V96H169.163V94ZM153.163 94.5565L139.339 66.6205L137.546 67.5075L151.37 95.4435L153.163 94.5565ZM139.362 66.6708L133.41 52.7508L131.571 53.5372L137.523 67.4572L139.362 66.6708ZM132.491 52.144H132.107V54.144H132.491V52.144ZM131.112 53.2524C131.497 56.7765 131.945 60.6839 132.458 64.9746L134.443 64.7374C133.932 60.4521 133.484 56.5515 133.101 53.0356L131.112 53.2524ZM132.458 64.9763C132.965 69.1646 133.219 73.1562 133.219 76.952H135.219C135.219 73.0678 134.96 68.9954 134.443 64.7357L132.458 64.9763ZM133.219 76.952V95H135.219V76.952H133.219ZM134.219 94H118.475V96H134.219V94ZM195.263 92.696L194.795 93.5801L194.803 93.5841L194.81 93.5879L195.263 92.696ZM184.415 82.04L183.55 82.5424L183.55 82.5424L184.415 82.04ZM182.687 50.36L181.76 49.9836L181.757 49.9912L182.687 50.36ZM189.407 39.992L188.707 39.2769L188.699 39.2849L189.407 39.992ZM199.103 33.656L199.468 34.5868L199.477 34.5833L199.103 33.656ZM221.567 33.944L221.112 34.8349L221.123 34.8402L221.133 34.8452L221.567 33.944ZM229.823 39.704L230.596 40.3372L231.161 39.6469L230.54 39.0072L229.823 39.704ZM221.183 50.264L220.524 51.0166L221.302 51.6972L221.956 50.8972L221.183 50.264ZM216.383 47L215.894 47.8725L215.914 47.884L215.935 47.8944L216.383 47ZM203.999 47.864L204.565 48.6881L204.57 48.6844L203.999 47.864ZM199.007 54.008L198.104 53.5781L198.099 53.5869L198.095 53.5958L199.007 54.008ZM200.831 77.24L200.034 77.8451L200.041 77.854L200.048 77.8627L200.831 77.24ZM217.055 80.312L216.561 79.442L216.555 79.4456L216.549 79.4493L217.055 80.312ZM221.951 76.568L222.719 75.9278L222.001 75.0667L221.227 75.8775L221.951 76.568ZM230.591 86.936L231.351 87.5855L231.899 86.944L231.359 86.2958L230.591 86.936ZM221.375 93.848L221.774 94.7645L221.774 94.7645L221.375 93.848ZM210.047 95.152C204.885 95.152 200.113 94.034 195.715 91.8041L194.81 93.5879C199.5 95.966 204.584 97.152 210.047 97.152V95.152ZM195.73 91.8119C191.429 89.5385 187.945 86.1253 185.279 81.5376L183.55 82.5424C186.388 87.4267 190.136 91.1175 194.795 93.5801L195.73 91.8119ZM185.279 81.5376C182.638 76.9931 181.287 71.2587 181.287 64.28H179.287C179.287 71.5093 180.687 77.6149 183.55 82.5424L185.279 81.5376ZM181.287 64.28C181.287 59.1325 182.071 54.6216 183.616 50.7288L181.757 49.9912C180.102 54.1624 179.287 58.9315 179.287 64.28H181.287ZM183.613 50.7364C185.232 46.7505 187.402 43.4107 190.114 40.6991L188.699 39.2849C185.779 42.2053 183.469 45.7775 181.76 49.9836L183.613 50.7364ZM190.106 40.707C192.894 37.9801 196.014 35.9436 199.468 34.5867L198.737 32.7252C195.023 34.1844 191.679 36.3719 188.707 39.277L190.106 40.707ZM199.477 34.5833C203.007 33.159 206.656 32.448 210.431 32.448V30.448C206.397 30.448 202.494 31.209 198.728 32.7286L199.477 34.5833ZM210.431 32.448C214.454 32.448 218.007 33.2518 221.112 34.8349L222.021 33.0531C218.598 31.3082 214.727 30.448 210.431 30.448V32.448ZM221.133 34.8452C224.374 36.4034 227.025 38.2589 229.105 40.4008L230.54 39.0072C228.268 36.6691 225.415 34.6846 222 33.0427L221.133 34.8452ZM229.049 39.0708L220.409 49.6308L221.956 50.8972L230.596 40.3372L229.049 39.0708ZM221.841 49.5114C220.247 48.1167 218.577 46.9792 216.83 46.1056L215.935 47.8944C217.516 48.6848 219.046 49.7233 220.524 51.0166L221.841 49.5114ZM216.871 46.1275C215.1 45.1359 213.071 44.656 210.815 44.656V46.656C212.782 46.656 214.465 47.0721 215.894 47.8725L216.871 46.1275ZM210.815 44.656C208.166 44.656 205.696 45.4619 203.427 47.0436L204.57 48.6844C206.525 47.3221 208.599 46.656 210.815 46.656V44.656ZM203.432 47.04C201.213 48.5655 199.444 50.7629 198.104 53.5781L199.909 54.4379C201.129 51.8771 202.688 49.9785 204.565 48.688L203.432 47.04ZM198.095 53.5958C196.807 56.4442 196.183 59.8242 196.183 63.704H198.183C198.183 60.0318 198.774 56.9478 199.918 54.4202L198.095 53.5958ZM196.183 63.704C196.183 69.6519 197.422 74.4084 200.034 77.8451L201.627 76.6349C199.375 73.6716 198.183 69.4041 198.183 63.704H196.183ZM200.048 77.8627C202.735 81.2388 206.288 82.944 210.623 82.944V80.944C206.893 80.944 203.918 79.5132 201.613 76.6173L200.048 77.8627ZM210.623 82.944C213.209 82.944 215.532 82.3639 217.56 81.1747L216.549 79.4493C214.865 80.4361 212.9 80.944 210.623 80.944V82.944ZM217.548 81.182C219.541 80.0521 221.254 78.746 222.674 77.2585L221.227 75.8775C219.959 77.206 218.408 78.3959 216.561 79.442L217.548 81.182ZM221.182 77.2082L229.822 87.5762L231.359 86.2958L222.719 75.9278L221.182 77.2082ZM229.83 86.2865C227.299 89.2495 224.349 91.4592 220.975 92.9315L221.774 94.7645C225.44 93.1648 228.634 90.7665 231.351 87.5855L229.83 86.2865ZM220.975 92.9315C217.587 94.4097 213.948 95.152 210.047 95.152V97.152C214.209 97.152 218.122 96.3583 221.774 94.7645L220.975 92.9315ZM239.225 95H238.225V96H239.225V95ZM239.225 32.6V31.6H238.225V32.6H239.225ZM255.737 32.6H256.737V31.6H255.737V32.6ZM255.737 55.832H254.737V56.832H255.737V55.832ZM274.361 55.832V56.832H275.361V55.832H274.361ZM274.361 32.6V31.6H273.361V32.6H274.361ZM290.873 32.6H291.873V31.6H290.873V32.6ZM290.873 95V96H291.873V95H290.873ZM274.361 95H273.361V96H274.361V95ZM274.361 70.232H275.361V69.232H274.361V70.232ZM255.737 70.232V69.232H254.737V70.232H255.737ZM255.737 95V96H256.737V95H255.737ZM240.225 95V32.6H238.225V95H240.225ZM239.225 33.6H255.737V31.6H239.225V33.6ZM254.737 32.6V55.832H256.737V32.6H254.737ZM255.737 56.832H274.361V54.832H255.737V56.832ZM275.361 55.832V32.6H273.361V55.832H275.361ZM274.361 33.6H290.873V31.6H274.361V33.6ZM289.873 32.6V95H291.873V32.6H289.873ZM290.873 94H274.361V96H290.873V94ZM275.361 95V70.232H273.361V95H275.361ZM274.361 69.232H255.737V71.232H274.361V69.232ZM254.737 70.232V95H256.737V70.232H254.737ZM255.737 94H239.225V96H255.737V94ZM323.881 95H322.881V96H323.881V95ZM323.881 32.6V31.6H322.881V32.6H323.881ZM359.305 34.52L359.621 33.5713L359.621 33.5713L359.305 34.52ZM368.521 40.952L367.727 41.5601L367.735 41.5706L368.521 40.952ZM368.521 65.816L367.711 65.2288L367.709 65.2317L368.521 65.816ZM359.305 72.92L358.933 71.9915L358.928 71.9937L359.305 72.92ZM340.393 75.224V74.224H339.393V75.224H340.393ZM340.393 95V96H341.393V95H340.393ZM340.393 62.168H339.393V63.168H340.393V62.168ZM353.545 59.864L352.838 59.1569L352.838 59.1569L353.545 59.864ZM353.353 47.384L353.907 46.5519L353.907 46.5519L353.353 47.384ZM340.393 45.656V44.656H339.393V45.656H340.393ZM324.881 95V32.6H322.881V95H324.881ZM323.881 33.6H346.729V31.6H323.881V33.6ZM346.729 33.6C351.178 33.6 355.262 34.2266 358.989 35.4687L359.621 33.5713C355.667 32.2534 351.367 31.6 346.729 31.6V33.6ZM358.989 35.4687C362.652 36.69 365.553 38.7218 367.727 41.5601L369.315 40.3439C366.881 37.1662 363.637 34.91 359.621 33.5713L358.989 35.4687ZM367.735 41.5706C369.921 44.3469 371.073 48.2301 371.073 53.336H373.073C373.073 47.9459 371.857 43.573 369.306 40.3334L367.735 41.5706ZM371.073 53.336C371.073 58.2351 369.927 62.1746 367.711 65.2288L369.33 66.4032C371.85 62.9294 373.073 58.5489 373.073 53.336H371.073ZM367.709 65.2317C365.522 68.2698 362.606 70.5225 358.933 71.9915L359.676 73.8485C363.684 72.2455 366.912 69.7622 369.332 66.4003L367.709 65.2317ZM358.928 71.9937C355.28 73.4778 351.344 74.224 347.113 74.224V76.224C351.585 76.224 355.778 75.4342 359.682 73.8463L358.928 71.9937ZM347.113 74.224H340.393V76.224H347.113V74.224ZM339.393 75.224V95H341.393V75.224H339.393ZM340.393 94H323.881V96H340.393V94ZM340.393 63.168H346.345V61.168H340.393V63.168ZM346.345 63.168C349.742 63.168 352.452 62.3708 354.252 60.5711L352.838 59.1569C351.565 60.4292 349.475 61.168 346.345 61.168V63.168ZM354.252 60.5711C356.079 58.7444 356.945 56.2921 356.945 53.336H354.945C354.945 55.8839 354.211 57.7836 352.838 59.1569L354.252 60.5711ZM356.945 53.336C356.945 50.3167 356.007 47.9519 353.907 46.5519L352.798 48.216C354.154 49.1201 354.945 50.7233 354.945 53.336H356.945ZM353.907 46.5519C351.949 45.246 349.259 44.656 345.961 44.656V46.656C349.062 46.656 351.301 47.218 352.798 48.216L353.907 46.5519ZM345.961 44.656H340.393V46.656H345.961V44.656ZM339.393 45.656V62.168H341.393V45.656H339.393ZM393.634 64.664L392.665 64.4166L392.662 64.4265L393.634 64.664ZM392.578 68.984L391.606 68.7465L391.304 69.984H392.578V68.984ZM404.098 68.984V69.984H405.372L405.069 68.7465L404.098 68.984ZM403.042 64.664L404.013 64.4265L404.011 64.4166L403.042 64.664ZM398.434 44.888L399.405 44.6501L399.218 43.888H398.434V44.888ZM398.05 44.888V43.888H397.233L397.07 44.688L398.05 44.888ZM395.938 54.872L394.961 54.6588L394.961 54.6588L395.938 54.872ZM369.634 95L368.677 94.7086L368.284 96H369.634V95ZM388.642 32.6V31.6H387.901L387.685 32.3086L388.642 32.6ZM408.61 32.6L409.566 32.3086L409.351 31.6H408.61V32.6ZM427.618 95V96H428.968L428.574 94.7086L427.618 95ZM410.146 95L409.172 95.2259L409.351 96H410.146V95ZM407.074 81.752L408.048 81.5261L407.868 80.752H407.074V81.752ZM389.602 81.752V80.752H388.807L388.628 81.5261L389.602 81.752ZM386.53 95V96H387.324L387.504 95.2259L386.53 95ZM392.662 64.4265L391.606 68.7465L393.549 69.2215L394.605 64.9015L392.662 64.4265ZM392.578 69.984H404.098V67.984H392.578V69.984ZM405.069 68.7465L404.013 64.4265L402.07 64.9015L403.126 69.2215L405.069 68.7465ZM404.011 64.4166C403.246 61.4216 402.481 58.1691 401.715 54.6588L399.761 55.0852C400.531 58.6149 401.302 61.8904 402.073 64.9114L404.011 64.4166ZM401.715 54.6588C400.945 51.1315 400.175 47.7952 399.405 44.6501L397.462 45.1259C398.228 48.2528 398.994 51.5725 399.761 55.0852L401.715 54.6588ZM398.434 43.888H398.05V45.888H398.434V43.888ZM397.07 44.688C396.431 47.8191 395.728 51.1427 394.961 54.6588L396.915 55.0852C397.684 51.5613 398.389 48.2289 399.03 45.088L397.07 44.688ZM394.961 54.6588C394.195 58.1691 393.43 61.4216 392.665 64.4166L394.603 64.9114C395.374 61.8904 396.145 58.6149 396.915 55.0852L394.961 54.6588ZM370.59 95.2914L389.598 32.8914L387.685 32.3086L368.677 94.7086L370.59 95.2914ZM388.642 33.6H408.61V31.6H388.642V33.6ZM407.653 32.8914L426.661 95.2914L428.574 94.7086L409.566 32.3086L407.653 32.8914ZM427.618 94H410.146V96H427.618V94ZM411.12 94.7741L408.048 81.5261L406.1 81.9779L409.172 95.2259L411.12 94.7741ZM407.074 80.752H389.602V82.752H407.074V80.752ZM388.628 81.5261L385.556 94.7741L387.504 95.2259L390.576 81.9779L388.628 81.5261ZM386.53 94H369.634V96H386.53V94ZM433.568 95H432.568V96H433.568V95ZM433.568 32.6V31.6H432.568V32.6H433.568ZM450.08 32.6H451.08V31.6H450.08V32.6ZM450.08 95V96H451.08V95H450.08ZM434.568 95V32.6H432.568V95H434.568ZM433.568 33.6H450.08V31.6H433.568V33.6ZM449.08 32.6V95H451.08V32.6H449.08ZM450.08 94H433.568V96H450.08V94ZM463.943 95H462.943V96H463.943V95ZM463.943 32.6V31.6H462.943V32.6H463.943ZM480.455 32.6H481.455V31.6H480.455V32.6ZM480.455 81.176H479.455V82.176H480.455V81.176ZM504.071 81.176H505.071V80.176H504.071V81.176ZM504.071 95V96H505.071V95H504.071ZM464.943 95V32.6H462.943V95H464.943ZM463.943 33.6H480.455V31.6H463.943V33.6ZM479.455 32.6V81.176H481.455V32.6H479.455ZM480.455 82.176H504.071V80.176H480.455V82.176ZM503.071 81.176V95H505.071V81.176H503.071ZM504.071 94H463.943V96H504.071V94Z" fill="#1F2DE6" mask="url(#path-1-outside-1_11_232)"/>
<mask id="path-3-outside-2_11_232" maskUnits="userSpaceOnUse" x="543" y="30" width="180" height="68" fill="black">
<rect fill="white" x="543" y="30" width="180" height="68"/>
<path d="M544.6 95V31.64H558.808C565.336 31.64 570.68 32.952 574.84 35.576C579.064 38.2 582.168 41.88 584.152 46.616C586.2 51.352 587.224 56.856 587.224 63.128C587.224 69.4 586.2 74.936 584.152 79.736C582.168 84.536 579.064 88.28 574.84 90.968C570.68 93.656 565.336 95 558.808 95H544.6ZM547.672 92.312H558.424C564.44 92.312 569.304 91.032 573.016 88.472C576.792 85.912 579.544 82.456 581.272 78.104C583.064 73.688 583.96 68.696 583.96 63.128C583.96 57.56 583.064 52.6 581.272 48.248C579.544 43.896 576.792 40.504 573.016 38.072C569.304 35.576 564.44 34.328 558.424 34.328H547.672V92.312ZM618.099 96.152C614.451 96.152 611.059 95.224 607.923 93.368C604.851 91.448 602.387 88.696 600.531 85.112C598.675 81.528 597.747 77.208 597.747 72.152C597.747 67.032 598.675 62.68 600.531 59.096C602.387 55.448 604.851 52.696 607.923 50.84C611.059 48.92 614.451 47.96 618.099 47.96C621.747 47.96 625.107 48.92 628.179 50.84C631.251 52.696 633.715 55.448 635.571 59.096C637.491 62.68 638.451 67.032 638.451 72.152C638.451 77.208 637.491 81.528 635.571 85.112C633.715 88.696 631.251 91.448 628.179 93.368C625.107 95.224 621.747 96.152 618.099 96.152ZM618.099 93.464C621.363 93.464 624.307 92.568 626.931 90.776C629.555 88.984 631.603 86.488 633.075 83.288C634.611 80.088 635.379 76.376 635.379 72.152C635.379 67.928 634.611 64.216 633.075 61.016C631.603 57.752 629.555 55.224 626.931 53.432C624.307 51.576 621.363 50.648 618.099 50.648C614.835 50.648 611.891 51.576 609.267 53.432C606.707 55.224 604.659 57.752 603.123 61.016C601.587 64.216 600.819 67.928 600.819 72.152C600.819 76.376 601.587 80.088 603.123 83.288C604.659 86.488 606.707 88.984 609.267 90.776C611.891 92.568 614.835 93.464 618.099 93.464ZM669.384 96.152C665.48 96.152 661.96 95.224 658.824 93.368C655.752 91.448 653.32 88.696 651.528 85.112C649.736 81.528 648.84 77.208 648.84 72.152C648.84 67.032 649.8 62.68 651.72 59.096C653.64 55.448 656.136 52.696 659.208 50.84C662.344 48.92 665.736 47.96 669.384 47.96C672.584 47.96 675.24 48.568 677.352 49.784C679.464 50.936 681.288 52.248 682.824 53.72L680.904 55.832C679.368 54.36 677.672 53.144 675.816 52.184C673.96 51.16 671.816 50.648 669.384 50.648C666.12 50.648 663.176 51.576 660.552 53.432C657.928 55.224 655.816 57.752 654.216 61.016C652.68 64.216 651.912 67.928 651.912 72.152C651.912 76.376 652.616 80.088 654.024 83.288C655.496 86.488 657.544 88.984 660.168 90.776C662.792 92.568 665.864 93.464 669.384 93.464C672.008 93.464 674.408 92.92 676.584 91.832C678.76 90.744 680.648 89.432 682.248 87.896L683.976 90.008C682.056 91.736 679.88 93.208 677.448 94.424C675.08 95.576 672.392 96.152 669.384 96.152ZM706.468 96.152C703.012 96.152 699.876 95.544 697.06 94.328C694.244 93.048 691.812 91.544 689.764 89.816L691.684 87.512C693.604 89.112 695.716 90.52 698.02 91.736C700.324 92.888 703.204 93.464 706.66 93.464C710.5 93.464 713.412 92.472 715.396 90.488C717.38 88.504 718.372 86.232 718.372 83.672C718.372 81.624 717.764 79.928 716.548 78.584C715.396 77.24 713.924 76.12 712.132 75.224C710.404 74.328 708.644 73.56 706.852 72.92C704.484 72.088 702.18 71.16 699.94 70.136C697.7 69.112 695.844 67.8 694.372 66.2C692.964 64.6 692.26 62.488 692.26 59.864C692.26 56.664 693.476 53.88 695.908 51.512C698.404 49.144 701.988 47.96 706.66 47.96C708.964 47.96 711.236 48.408 713.476 49.304C715.78 50.136 717.732 51.224 719.332 52.568L717.604 54.872C716.068 53.72 714.436 52.728 712.708 51.896C710.98 51.064 708.9 50.648 706.468 50.648C702.628 50.648 699.812 51.608 698.02 53.528C696.228 55.384 695.332 57.432 695.332 59.672C695.332 61.528 695.844 63.064 696.868 64.28C697.892 65.432 699.204 66.424 700.804 67.256C702.468 68.024 704.228 68.76 706.084 69.464C708.516 70.424 710.916 71.416 713.284 72.44C715.652 73.4 717.604 74.744 719.14 76.472C720.676 78.136 721.444 80.472 721.444 83.48C721.444 85.72 720.868 87.8 719.716 89.72C718.564 91.64 716.868 93.208 714.628 94.424C712.388 95.576 709.668 96.152 706.468 96.152Z"/>
</mask>
<path d="M544.6 95V31.64H558.808C565.336 31.64 570.68 32.952 574.84 35.576C579.064 38.2 582.168 41.88 584.152 46.616C586.2 51.352 587.224 56.856 587.224 63.128C587.224 69.4 586.2 74.936 584.152 79.736C582.168 84.536 579.064 88.28 574.84 90.968C570.68 93.656 565.336 95 558.808 95H544.6ZM547.672 92.312H558.424C564.44 92.312 569.304 91.032 573.016 88.472C576.792 85.912 579.544 82.456 581.272 78.104C583.064 73.688 583.96 68.696 583.96 63.128C583.96 57.56 583.064 52.6 581.272 48.248C579.544 43.896 576.792 40.504 573.016 38.072C569.304 35.576 564.44 34.328 558.424 34.328H547.672V92.312ZM618.099 96.152C614.451 96.152 611.059 95.224 607.923 93.368C604.851 91.448 602.387 88.696 600.531 85.112C598.675 81.528 597.747 77.208 597.747 72.152C597.747 67.032 598.675 62.68 600.531 59.096C602.387 55.448 604.851 52.696 607.923 50.84C611.059 48.92 614.451 47.96 618.099 47.96C621.747 47.96 625.107 48.92 628.179 50.84C631.251 52.696 633.715 55.448 635.571 59.096C637.491 62.68 638.451 67.032 638.451 72.152C638.451 77.208 637.491 81.528 635.571 85.112C633.715 88.696 631.251 91.448 628.179 93.368C625.107 95.224 621.747 96.152 618.099 96.152ZM618.099 93.464C621.363 93.464 624.307 92.568 626.931 90.776C629.555 88.984 631.603 86.488 633.075 83.288C634.611 80.088 635.379 76.376 635.379 72.152C635.379 67.928 634.611 64.216 633.075 61.016C631.603 57.752 629.555 55.224 626.931 53.432C624.307 51.576 621.363 50.648 618.099 50.648C614.835 50.648 611.891 51.576 609.267 53.432C606.707 55.224 604.659 57.752 603.123 61.016C601.587 64.216 600.819 67.928 600.819 72.152C600.819 76.376 601.587 80.088 603.123 83.288C604.659 86.488 606.707 88.984 609.267 90.776C611.891 92.568 614.835 93.464 618.099 93.464ZM669.384 96.152C665.48 96.152 661.96 95.224 658.824 93.368C655.752 91.448 653.32 88.696 651.528 85.112C649.736 81.528 648.84 77.208 648.84 72.152C648.84 67.032 649.8 62.68 651.72 59.096C653.64 55.448 656.136 52.696 659.208 50.84C662.344 48.92 665.736 47.96 669.384 47.96C672.584 47.96 675.24 48.568 677.352 49.784C679.464 50.936 681.288 52.248 682.824 53.72L680.904 55.832C679.368 54.36 677.672 53.144 675.816 52.184C673.96 51.16 671.816 50.648 669.384 50.648C666.12 50.648 663.176 51.576 660.552 53.432C657.928 55.224 655.816 57.752 654.216 61.016C652.68 64.216 651.912 67.928 651.912 72.152C651.912 76.376 652.616 80.088 654.024 83.288C655.496 86.488 657.544 88.984 660.168 90.776C662.792 92.568 665.864 93.464 669.384 93.464C672.008 93.464 674.408 92.92 676.584 91.832C678.76 90.744 680.648 89.432 682.248 87.896L683.976 90.008C682.056 91.736 679.88 93.208 677.448 94.424C675.08 95.576 672.392 96.152 669.384 96.152ZM706.468 96.152C703.012 96.152 699.876 95.544 697.06 94.328C694.244 93.048 691.812 91.544 689.764 89.816L691.684 87.512C693.604 89.112 695.716 90.52 698.02 91.736C700.324 92.888 703.204 93.464 706.66 93.464C710.5 93.464 713.412 92.472 715.396 90.488C717.38 88.504 718.372 86.232 718.372 83.672C718.372 81.624 717.764 79.928 716.548 78.584C715.396 77.24 713.924 76.12 712.132 75.224C710.404 74.328 708.644 73.56 706.852 72.92C704.484 72.088 702.18 71.16 699.94 70.136C697.7 69.112 695.844 67.8 694.372 66.2C692.964 64.6 692.26 62.488 692.26 59.864C692.26 56.664 693.476 53.88 695.908 51.512C698.404 49.144 701.988 47.96 706.66 47.96C708.964 47.96 711.236 48.408 713.476 49.304C715.78 50.136 717.732 51.224 719.332 52.568L717.604 54.872C716.068 53.72 714.436 52.728 712.708 51.896C710.98 51.064 708.9 50.648 706.468 50.648C702.628 50.648 699.812 51.608 698.02 53.528C696.228 55.384 695.332 57.432 695.332 59.672C695.332 61.528 695.844 63.064 696.868 64.28C697.892 65.432 699.204 66.424 700.804 67.256C702.468 68.024 704.228 68.76 706.084 69.464C708.516 70.424 710.916 71.416 713.284 72.44C715.652 73.4 717.604 74.744 719.14 76.472C720.676 78.136 721.444 80.472 721.444 83.48C721.444 85.72 720.868 87.8 719.716 89.72C718.564 91.64 716.868 93.208 714.628 94.424C712.388 95.576 709.668 96.152 706.468 96.152Z" fill="#1F2DE6"/>
<path d="M544.6 95H543.6V96H544.6V95ZM544.6 31.64V30.64H543.6V31.64H544.6ZM574.84 35.576L574.306 36.4218L574.312 36.4254L574.84 35.576ZM584.152 46.616L583.23 47.0024L583.234 47.0129L584.152 46.616ZM584.152 79.736L583.232 79.3435L583.228 79.354L584.152 79.736ZM574.84 90.968L574.303 90.1243L574.297 90.1281L574.84 90.968ZM547.672 92.312H546.672V93.312H547.672V92.312ZM573.016 88.472L572.455 87.6443L572.448 87.6488L573.016 88.472ZM581.272 78.104L580.345 77.728L580.343 77.735L581.272 78.104ZM581.272 48.248L580.343 48.6171L580.347 48.6287L581.272 48.248ZM573.016 38.072L572.458 38.9018L572.466 38.9074L572.475 38.9127L573.016 38.072ZM547.672 34.328V33.328H546.672V34.328H547.672ZM545.6 95V31.64H543.6V95H545.6ZM544.6 32.64H558.808V30.64H544.6V32.64ZM558.808 32.64C565.207 32.64 570.351 33.9265 574.306 36.4218L575.374 34.7302C571.009 31.9775 565.465 30.64 558.808 30.64V32.64ZM574.312 36.4254C578.354 38.9361 581.323 42.4513 583.23 47.0024L585.074 46.2296C583.013 41.3087 579.774 37.4639 575.368 34.7266L574.312 36.4254ZM583.234 47.0129C585.218 51.5997 586.224 56.9638 586.224 63.128H588.224C588.224 56.7482 587.182 51.1043 585.07 46.2191L583.234 47.0129ZM586.224 63.128C586.224 69.2918 585.218 74.69 583.232 79.3436L585.072 80.1284C587.182 75.182 588.224 69.5082 588.224 63.128H586.224ZM583.228 79.354C581.319 83.9715 578.347 87.5511 574.303 90.1243L575.377 91.8117C579.781 89.0089 583.017 85.1005 585.076 80.118L583.228 79.354ZM574.297 90.1281C570.343 92.6832 565.204 94 558.808 94V96C565.468 96 571.017 94.6288 575.383 91.8079L574.297 90.1281ZM558.808 94H544.6V96H558.808V94ZM547.672 93.312H558.424V91.312H547.672V93.312ZM558.424 93.312C564.576 93.312 569.657 92.0031 573.584 89.2952L572.448 87.6488C568.951 90.0609 564.304 91.312 558.424 91.312V93.312ZM573.577 89.2997C577.524 86.6241 580.402 83.0062 582.201 78.473L580.343 77.735C578.686 81.9058 576.06 85.1999 572.455 87.6443L573.577 89.2997ZM582.199 78.48C584.047 73.9262 584.96 68.8035 584.96 63.128H582.96C582.96 68.5885 582.081 73.4498 580.345 77.728L582.199 78.48ZM584.96 63.128C584.96 57.4529 584.047 52.36 582.197 47.8672L580.347 48.6287C582.081 52.84 582.96 57.6671 582.96 63.128H584.96ZM582.201 47.879C580.4 43.3419 577.517 39.7812 573.557 37.2313L572.475 38.9127C576.067 41.2268 578.688 44.4501 580.343 48.617L582.201 47.879ZM573.574 37.2422C569.649 34.6029 564.572 33.328 558.424 33.328V35.328C564.308 35.328 568.959 36.549 572.458 38.9018L573.574 37.2422ZM558.424 33.328H547.672V35.328H558.424V33.328ZM546.672 34.328V92.312H548.672V34.328H546.672ZM607.923 93.368L607.393 94.216L607.403 94.2224L607.413 94.2286L607.923 93.368ZM600.531 85.112L601.418 84.6521L601.418 84.6521L600.531 85.112ZM600.531 59.096L601.419 59.5559L601.422 59.5495L600.531 59.096ZM607.923 50.84L608.44 51.6959L608.445 51.6929L607.923 50.84ZM628.179 50.84L627.649 51.688L627.655 51.692L627.661 51.6959L628.179 50.84ZM635.571 59.096L634.679 59.5495L634.684 59.5589L634.689 59.5682L635.571 59.096ZM635.571 85.112L634.689 84.6397L634.683 84.6521L635.571 85.112ZM628.179 93.368L628.696 94.2239L628.702 94.22L628.709 94.216L628.179 93.368ZM626.931 90.776L626.367 89.9502L626.367 89.9502L626.931 90.776ZM633.075 83.288L632.173 82.8553L632.169 82.8627L632.166 82.8701L633.075 83.288ZM633.075 61.016L632.163 61.4271L632.168 61.438L632.173 61.4487L633.075 61.016ZM626.931 53.432L626.353 54.2484L626.36 54.2532L626.367 54.2578L626.931 53.432ZM609.267 53.432L609.84 54.2512L609.844 54.2484L609.267 53.432ZM603.123 61.016L604.024 61.4487L604.027 61.4418L603.123 61.016ZM603.123 83.288L604.024 82.8553L604.024 82.8553L603.123 83.288ZM609.267 90.776L608.693 91.5953L608.703 91.6018L609.267 90.776ZM618.099 95.152C614.629 95.152 611.413 94.272 608.432 92.5074L607.413 94.2286C610.704 96.176 614.272 97.152 618.099 97.152V95.152ZM608.452 92.52C605.549 90.7055 603.202 88.0957 601.418 84.6521L599.643 85.5719C601.571 89.2963 604.152 92.1905 607.393 94.216L608.452 92.52ZM601.418 84.6521C599.652 81.2417 598.747 77.0875 598.747 72.152H596.747C596.747 77.3285 597.697 81.8143 599.643 85.5719L601.418 84.6521ZM598.747 72.152C598.747 67.1501 599.653 62.9647 601.418 59.5559L599.643 58.6361C597.696 62.3953 596.747 66.9139 596.747 72.152H598.747ZM601.422 59.5495C603.205 56.044 605.549 53.4423 608.44 51.6959L607.405 49.9841C604.152 51.9497 601.568 54.852 599.639 58.6425L601.422 59.5495ZM608.445 51.6929C611.425 49.8683 614.636 48.96 618.099 48.96V46.96C614.265 46.96 610.692 47.9717 607.4 49.9871L608.445 51.6929ZM618.099 48.96C621.56 48.96 624.737 49.8681 627.649 51.688L628.709 49.992C625.476 47.9719 621.933 46.96 618.099 46.96V48.96ZM627.661 51.6959C630.552 53.4423 632.896 56.044 634.679 59.5495L636.462 58.6425C634.533 54.852 631.949 51.9497 628.696 49.9841L627.661 51.6959ZM634.689 59.5682C636.514 62.9741 637.451 67.1549 637.451 72.152H639.451C639.451 66.9091 638.467 62.3859 636.452 58.6238L634.689 59.5682ZM637.451 72.152C637.451 77.0827 636.514 81.2322 634.689 84.6398L636.452 85.5842C638.467 81.8238 639.451 77.3333 639.451 72.152H637.451ZM634.683 84.6521C632.899 88.0957 630.552 90.7055 627.649 92.52L628.709 94.216C631.949 92.1905 634.53 89.2963 636.458 85.5719L634.683 84.6521ZM627.661 92.5121C624.748 94.2722 621.567 95.152 618.099 95.152V97.152C621.926 97.152 625.465 96.1758 628.696 94.2239L627.661 92.5121ZM618.099 94.464C621.558 94.464 624.7 93.5105 627.494 91.6018L626.367 89.9502C623.913 91.6255 621.167 92.464 618.099 92.464V94.464ZM627.494 91.6018C630.284 89.6967 632.444 87.0522 633.983 83.7059L632.166 82.8701C630.761 85.9238 628.825 88.2713 626.367 89.9502L627.494 91.6018ZM633.976 83.7207C635.588 80.3624 636.379 76.4976 636.379 72.152H634.379C634.379 76.2544 633.633 79.8136 632.173 82.8553L633.976 83.7207ZM636.379 72.152C636.379 67.8064 635.588 63.9416 633.976 60.5833L632.173 61.4487C633.633 64.4904 634.379 68.0496 634.379 72.152H636.379ZM633.986 60.6049C632.448 57.1951 630.289 54.5146 627.494 52.6062L626.367 54.2578C628.82 55.9334 630.757 58.3089 632.163 61.4271L633.986 60.6049ZM627.508 52.6156C624.712 50.6382 621.566 49.648 618.099 49.648V51.648C621.159 51.648 623.901 52.5138 626.353 54.2484L627.508 52.6156ZM618.099 49.648C614.631 49.648 611.485 50.6382 608.689 52.6156L609.844 54.2484C612.296 52.5138 615.038 51.648 618.099 51.648V49.648ZM608.693 52.6128C605.969 54.5193 603.816 57.1931 602.218 60.5902L604.027 61.4418C605.501 58.3109 607.444 55.9287 609.84 54.2512L608.693 52.6128ZM602.221 60.5833C600.609 63.9416 599.819 67.8064 599.819 72.152H601.819C601.819 68.0496 602.564 64.4904 604.024 61.4487L602.221 60.5833ZM599.819 72.152C599.819 76.4976 600.609 80.3624 602.221 83.7207L604.024 82.8553C602.564 79.8136 601.819 76.2544 601.819 72.152H599.819ZM602.221 83.7207C603.821 87.0542 605.974 89.692 608.693 91.5952L609.84 89.9568C607.439 88.276 605.496 85.9218 604.024 82.8553L602.221 83.7207ZM608.703 91.6018C611.497 93.5105 614.639 94.464 618.099 94.464V92.464C615.03 92.464 612.284 91.6255 609.83 89.9502L608.703 91.6018ZM658.824 93.368L658.294 94.216L658.305 94.2224L658.315 94.2286L658.824 93.368ZM651.528 85.112L650.634 85.5592L650.634 85.5592L651.528 85.112ZM651.72 59.096L652.602 59.5682L652.605 59.5617L651.72 59.096ZM659.208 50.84L659.725 51.6959L659.73 51.6929L659.208 50.84ZM677.352 49.784L676.853 50.6506L676.863 50.6564L676.873 50.6619L677.352 49.784ZM682.824 53.72L683.564 54.3927L684.219 53.6719L683.516 52.998L682.824 53.72ZM680.904 55.832L680.212 56.554L680.954 57.2643L681.644 56.5047L680.904 55.832ZM675.816 52.184L675.333 53.0596L675.345 53.0661L675.357 53.0722L675.816 52.184ZM660.552 53.432L661.116 54.2578L661.123 54.2532L661.13 54.2484L660.552 53.432ZM654.216 61.016L653.318 60.5758L653.315 60.5833L654.216 61.016ZM654.024 83.288L653.109 83.6907L653.112 83.6983L653.116 83.7059L654.024 83.288ZM660.168 90.776L659.604 91.6018L659.604 91.6018L660.168 90.776ZM676.584 91.832L677.031 92.7264L677.031 92.7264L676.584 91.832ZM682.248 87.896L683.022 87.2628L682.337 86.4249L681.556 87.1746L682.248 87.896ZM683.976 90.008L684.645 90.7513L685.354 90.1131L684.75 89.3748L683.976 90.008ZM677.448 94.424L677.886 95.3233L677.895 95.3184L677.448 94.424ZM669.384 95.152C665.646 95.152 662.304 94.2656 659.334 92.5074L658.315 94.2286C661.616 96.1824 665.314 97.152 669.384 97.152V95.152ZM659.354 92.52C656.455 90.7077 654.141 88.1022 652.423 84.6648L650.634 85.5592C652.499 89.2898 655.05 92.1883 658.294 94.216L659.354 92.52ZM652.423 84.6648C650.716 81.2512 649.84 77.0923 649.84 72.152H647.84C647.84 77.3237 648.757 81.8048 650.634 85.5592L652.423 84.6648ZM649.84 72.152C649.84 67.1549 650.777 62.9741 652.602 59.5682L650.839 58.6238C648.823 62.3859 647.84 66.9091 647.84 72.152H649.84ZM652.605 59.5617C654.453 56.0505 656.831 53.4445 659.725 51.6959L658.691 49.9841C655.441 51.9475 652.827 54.8455 650.835 58.6303L652.605 59.5617ZM659.73 51.6929C662.711 49.8683 665.922 48.96 669.384 48.96V46.96C665.55 46.96 661.978 47.9717 658.686 49.9871L659.73 51.6929ZM669.384 48.96C672.462 48.96 674.933 49.5452 676.853 50.6506L677.851 48.9174C675.547 47.5908 672.706 46.96 669.384 46.96V48.96ZM676.873 50.6619C678.918 51.777 680.668 53.0385 682.132 54.442L683.516 52.998C681.909 51.4575 680.011 50.095 677.831 48.9061L676.873 50.6619ZM682.084 53.0473L680.164 55.1593L681.644 56.5047L683.564 54.3927L682.084 53.0473ZM681.596 55.11C679.992 53.573 678.218 52.3006 676.276 51.2958L675.357 53.0722C677.126 53.9874 678.744 55.147 680.212 56.554L681.596 55.11ZM676.299 51.3084C674.275 50.1915 671.96 49.648 669.384 49.648V51.648C671.672 51.648 673.646 52.1285 675.333 53.0596L676.299 51.3084ZM669.384 49.648C665.917 49.648 662.77 50.6382 659.975 52.6156L661.13 54.2484C663.582 52.5138 666.324 51.648 669.384 51.648V49.648ZM659.988 52.6062C657.202 54.509 654.983 57.1793 653.318 60.5758L655.114 61.4562C656.649 58.3247 658.654 55.939 661.116 54.2578L659.988 52.6062ZM653.315 60.5833C651.703 63.9416 650.912 67.8064 650.912 72.152H652.912C652.912 68.0496 653.658 64.4904 655.118 61.4487L653.315 60.5833ZM650.912 72.152C650.912 76.4864 651.635 80.3403 653.109 83.6907L654.94 82.8853C653.598 79.8357 652.912 76.2656 652.912 72.152H650.912ZM653.116 83.7059C654.655 87.0522 656.815 89.6967 659.604 91.6018L660.732 89.9502C658.274 88.2713 656.337 85.9238 654.933 82.8701L653.116 83.7059ZM659.604 91.6018C662.412 93.5194 665.686 94.464 669.384 94.464V92.464C666.043 92.464 663.172 91.6166 660.732 89.9502L659.604 91.6018ZM669.384 94.464C672.151 94.464 674.706 93.8892 677.031 92.7264L676.137 90.9376C674.111 91.9508 671.865 92.464 669.384 92.464V94.464ZM677.031 92.7264C679.289 91.5977 681.262 90.2295 682.941 88.6174L681.556 87.1746C680.035 88.6345 678.232 89.8903 676.137 90.9376L677.031 92.7264ZM681.474 88.5292L683.202 90.6412L684.75 89.3748L683.022 87.2628L681.474 88.5292ZM683.307 89.2647C681.458 90.9295 679.357 92.3516 677.001 93.5296L677.895 95.3184C680.404 94.0644 682.655 92.5425 684.645 90.7513L683.307 89.2647ZM677.011 93.5248C674.797 94.6016 672.262 95.152 669.384 95.152V97.152C672.522 97.152 675.363 96.5504 677.886 95.3232L677.011 93.5248ZM697.06 94.328L696.646 95.2384L696.655 95.2423L696.664 95.2461L697.06 94.328ZM689.764 89.816L688.996 89.1758L688.359 89.9394L689.119 90.5803L689.764 89.816ZM691.684 87.512L692.324 86.7438L691.556 86.1036L690.916 86.8718L691.684 87.512ZM698.02 91.736L697.553 92.6204L697.563 92.6255L697.573 92.6304L698.02 91.736ZM715.396 90.488L716.103 91.1951L716.103 91.1951L715.396 90.488ZM716.548 78.584L715.789 79.2348L715.797 79.245L715.806 79.2549L716.548 78.584ZM712.132 75.224L711.672 76.1118L711.678 76.1151L711.685 76.1184L712.132 75.224ZM706.852 72.92L707.188 71.9782L707.183 71.9765L706.852 72.92ZM699.94 70.136L699.524 71.0455L699.524 71.0455L699.94 70.136ZM694.372 66.2L693.621 66.8606L693.629 66.8689L693.636 66.8771L694.372 66.2ZM695.908 51.512L695.22 50.7865L695.21 50.7955L695.908 51.512ZM713.476 49.304L713.105 50.2325L713.12 50.2388L713.136 50.2446L713.476 49.304ZM719.332 52.568L720.132 53.168L720.7 52.4109L719.975 51.8023L719.332 52.568ZM717.604 54.872L717.004 55.672L717.804 56.272L718.404 55.472L717.604 54.872ZM712.708 51.896L713.142 50.995L713.142 50.995L712.708 51.896ZM698.02 53.528L698.739 54.2226L698.745 54.2165L698.751 54.2103L698.02 53.528ZM696.868 64.28L696.103 64.9241L696.112 64.9344L696.121 64.9444L696.868 64.28ZM700.804 67.256L700.343 68.1432L700.364 68.1541L700.385 68.164L700.804 67.256ZM706.084 69.464L706.451 68.5338L706.439 68.529L706.084 69.464ZM713.284 72.44L712.887 73.3579L712.898 73.3624L712.908 73.3667L713.284 72.44ZM719.14 76.472L718.393 77.1364L718.399 77.1434L718.405 77.1503L719.14 76.472ZM719.716 89.72L718.859 89.2055L718.859 89.2055L719.716 89.72ZM714.628 94.424L715.085 95.3133L715.095 95.3082L715.105 95.3029L714.628 94.424ZM706.468 95.152C703.131 95.152 700.132 94.5654 697.456 93.4099L696.664 95.2461C699.62 96.5226 702.893 97.152 706.468 97.152V95.152ZM697.474 93.4176C694.729 92.1698 692.377 90.7124 690.409 89.0517L689.119 90.5803C691.247 92.3756 693.759 93.9262 696.646 95.2384L697.474 93.4176ZM690.532 90.4562L692.452 88.1522L690.916 86.8718L688.996 89.1758L690.532 90.4562ZM691.044 88.2802C693.02 89.9267 695.19 91.3732 697.553 92.6204L698.487 90.8516C696.242 89.6668 694.188 88.2973 692.324 86.7438L691.044 88.2802ZM697.573 92.6304C700.055 93.8714 703.099 94.464 706.66 94.464V92.464C703.309 92.464 700.593 91.9046 698.467 90.8416L697.573 92.6304ZM706.66 94.464C710.665 94.464 713.871 93.4272 716.103 91.1951L714.689 89.7809C712.953 91.5168 710.335 92.464 706.66 92.464V94.464ZM716.103 91.1951C718.255 89.0434 719.372 86.524 719.372 83.672H717.372C717.372 85.94 716.505 87.9646 714.689 89.7809L716.103 91.1951ZM719.372 83.672C719.372 81.4107 718.694 79.4651 717.29 77.9131L715.806 79.2549C716.834 80.3909 717.372 81.8373 717.372 83.672H719.372ZM717.307 77.9332C716.058 76.4755 714.475 75.2773 712.579 74.3296L711.685 76.1184C713.373 76.9627 714.734 78.0045 715.789 79.2348L717.307 77.9332ZM712.592 74.3362C710.825 73.4199 709.024 72.6338 707.188 71.9783L706.516 73.8617C708.264 74.4862 709.983 75.2361 711.672 76.1118L712.592 74.3362ZM707.183 71.9765C704.844 71.1544 702.568 70.2377 700.356 69.2265L699.524 71.0455C701.792 72.0823 704.124 73.0216 706.521 73.8635L707.183 71.9765ZM700.356 69.2265C698.221 68.2506 696.479 67.0127 695.108 65.5229L693.636 66.8771C695.209 68.5873 697.179 69.9734 699.524 71.0455L700.356 69.2265ZM695.123 65.5394C693.91 64.1616 693.26 62.3034 693.26 59.864H691.26C691.26 62.6726 692.018 65.0384 693.621 66.8606L695.123 65.5394ZM693.26 59.864C693.26 56.9516 694.354 54.421 696.606 52.2285L695.21 50.7955C692.598 53.339 691.26 56.3764 691.26 59.864H693.26ZM696.596 52.2375C698.848 50.1009 702.151 48.96 706.66 48.96V46.96C701.825 46.96 697.96 48.1871 695.22 50.7865L696.596 52.2375ZM706.66 48.96C708.831 48.96 710.977 49.3815 713.105 50.2325L713.847 48.3755C711.495 47.4345 709.097 46.96 706.66 46.96V48.96ZM713.136 50.2446C715.348 51.0433 717.193 52.0772 718.689 53.3337L719.975 51.8023C718.271 50.3708 716.212 49.2287 713.816 48.3634L713.136 50.2446ZM718.532 51.968L716.804 54.272L718.404 55.472L720.132 53.168L718.532 51.968ZM718.204 54.072C716.616 52.8811 714.928 51.8552 713.142 50.995L712.274 52.797C713.944 53.6008 715.52 54.5589 717.004 55.672L718.204 54.072ZM713.142 50.995C711.247 50.0828 709.011 49.648 706.468 49.648V51.648C708.789 51.648 710.713 52.0452 712.274 52.797L713.142 50.995ZM706.468 49.648C702.48 49.648 699.343 50.6447 697.289 52.8457L698.751 54.2103C700.281 52.5713 702.776 51.648 706.468 51.648V49.648ZM697.301 52.8334C695.358 54.8453 694.332 57.1333 694.332 59.672H696.332C696.332 57.7306 697.098 55.9227 698.739 54.2226L697.301 52.8334ZM694.332 59.672C694.332 61.7221 694.902 63.4984 696.103 64.9241L697.633 63.6359C696.786 62.6296 696.332 61.3339 696.332 59.672H694.332ZM696.121 64.9444C697.238 66.2015 698.653 67.2644 700.343 68.1432L701.265 66.3688C699.755 65.5836 698.546 64.6625 697.615 63.6156L696.121 64.9444ZM700.385 68.164C702.072 68.9425 703.853 69.6874 705.729 70.399L706.439 68.529C704.603 67.8326 702.864 67.1055 701.223 66.348L700.385 68.164ZM705.717 70.3942C708.139 71.3503 710.529 72.3382 712.887 73.3579L713.681 71.5221C711.303 70.4938 708.893 69.4977 706.451 68.5338L705.717 70.3942ZM712.908 73.3667C715.149 74.2752 716.969 75.5349 718.393 77.1364L719.887 75.8076C718.239 73.9531 716.155 72.5248 713.66 71.5133L712.908 73.3667ZM718.405 77.1503C719.721 78.5757 720.444 80.639 720.444 83.48H722.444C722.444 80.305 721.631 77.6963 719.875 75.7937L718.405 77.1503ZM720.444 83.48C720.444 85.5388 719.917 87.441 718.859 89.2055L720.573 90.2345C721.819 88.159 722.444 85.9012 722.444 83.48H720.444ZM718.859 89.2055C717.811 90.952 716.256 92.4024 714.151 93.5451L715.105 95.3029C717.48 94.0136 719.317 92.328 720.573 90.2345L718.859 89.2055ZM714.171 93.5347C712.105 94.5969 709.551 95.152 706.468 95.152V97.152C709.785 97.152 712.671 96.5551 715.085 95.3133L714.171 93.5347Z" fill="#1F2DE6" mask="url(#path-3-outside-2_11_232)"/>
</svg>
